<svg width="172" height="216" viewBox="0 0 172 216" fill="none" xmlns="http://www.w3.org/2000/svg">
<path d="M13.7697 129.639C-3.80845 93.8964 8.98451 63.0859 17.5782 52.1484C19.4533 51.2109 19.2384 52.539 18.8966 53.3203C2.13876 86.9531 11.9141 117.139 18.8966 128.027C33.0762 157.09 61.4258 166.992 73.8281 168.31C78.8672 171.24 75.9277 172.656 73.8281 172.998C39.7266 168.545 19.5802 142.236 13.7697 129.639Z" fill="#FF3975"/>
<path d="M158.347 129.639C175.925 93.8964 163.132 63.0859 154.538 52.1484C152.663 51.2109 152.878 52.539 153.22 53.3203C169.978 86.9531 160.203 117.139 153.22 128.027C139.041 157.09 110.691 166.992 98.2886 168.31C93.2496 171.24 96.189 172.656 98.2886 172.998C132.39 168.545 152.537 142.236 158.347 129.639Z" fill="#FF3975"/>
<path d="M85.8397 5.41993C31.582 5.41993 6.00585 56.5917 0 82.1777C1.875 20.0684 58.0077 1.51368 85.8397 0C151.933 4.45312 170.703 56.7382 171.826 82.3241C155.771 18.5742 107.812 4.4922 85.8397 5.41993Z" fill="#FF3975"/>
<path d="M62.0694 47.2179C66.2136 27.5363 79.7848 25.1421 86.1328 27.9785C101.273 22.799 109.67 39.413 111.106 50.748C111.383 52.9334 110.978 55.1334 110.862 57.3332C110.516 63.9117 114.253 66.8517 116.455 67.5292C125.449 70.451 128.985 76.5417 129.947 80.3648C130.222 81.4579 130.062 83.6755 130.068 84.8026C130.123 95.3748 144.761 97.7935 148.639 107.629C151.696 115.38 145.614 121.665 140.625 124.512C133.945 128.262 135.107 133.008 136.523 134.912C139.805 143.232 132.422 148.633 128.32 150.293C133.125 144.082 129.736 137.939 127.441 135.644C118.887 126.973 126.709 120.508 131.689 118.359C135.793 115.113 136.767 111.726 136.366 108.862C135.729 104.328 130.377 102.478 127.589 98.8466C125.433 96.0386 124.459 92.5676 124.219 90.5273C123.984 82.3241 117.969 77.1484 114.99 75.5859C110.417 74.2975 107.374 71.1796 105.465 67.984C102.9 63.6918 103.906 58.345 103.024 53.4232C101.95 47.4317 98.166 42.9978 95.8008 41.1621C90.7618 40.6933 87.2559 35.1074 86.1328 32.373C86.1328 35.8887 81.543 38.916 79.2481 39.9902C69.9903 43.1543 68.6524 54.1992 69.1407 59.3261C70.3126 66.4745 63.1837 72.1679 59.4727 74.121C51.2696 78.3398 48.5352 84.2773 48.1934 86.7187C48.6622 94.9218 43.213 100.098 40.4298 101.66C30.1173 110.215 38.4767 117.92 43.9454 120.703C51.4454 126.445 47.9493 132.471 45.2638 134.765C39.4044 138.164 41.3575 146.728 43.0665 150.586C40.2227 148.821 38.2713 146.857 36.9633 145.013C34.4155 141.421 36.0638 136.875 36.4981 132.492C36.9904 127.524 34.281 125.234 32.3731 124.658C19.3977 116.78 21.9375 108.078 26.659 102.608C28.9843 99.9149 32.3635 98.4735 35.3789 96.5841C41.5822 92.6973 42.4174 88.5686 41.8946 86.7187C40.254 74.9999 50.9766 68.8476 56.543 67.2363C60.4411 65.5871 61.6698 61.6121 61.7935 57.9649C61.9152 54.38 61.3303 50.7279 62.0694 47.2179Z" fill="#FF3975"/>
<path d="M71.7773 62.4022C71.4257 53.9648 72.0214 51.8554 72.3632 51.8554C74.0038 67.4413 82.3242 70.6542 86.2793 70.3124C95.8887 70.3124 99.4629 57.9101 100.049 51.7089C100.635 52.412 100.684 59.1308 100.635 62.4022C102.686 71.3378 107.373 74.5604 113.965 77.6366C117.581 79.3242 119.797 82.899 120.989 85.924C121.9 88.2325 121.851 90.7833 122.385 93.2068C122.752 94.8762 123.356 96.3229 124.01 97.4993C125.227 99.6866 127.414 101.073 129.38 102.622C139.196 110.348 131.731 116.719 126.269 119.092C119.473 124.599 121.68 131.347 123.633 134.033C131.836 141.533 127.637 148.584 124.512 151.172C126.011 144.3 122.715 141.158 119.805 133.204C118.71 130.211 118.454 126.992 118.639 123.811L120.117 98.4374C121.039 89.9911 116.686 86.0309 111.995 84.414C107.55 82.8818 102.429 83.6902 98.3034 81.4346C92.771 78.4096 91.7679 73.1673 92.1387 70.3124C87.334 73.828 81.836 71.7772 79.6875 70.3124C81.4453 80.3905 71.045 83.3007 65.625 83.496C51.0938 83.2616 50.6836 96.9725 52.295 103.857C55.9279 126.474 52.8321 136.328 50.8301 138.428C49.4239 140.888 48.1933 147.949 47.7538 151.172C40.4881 145.898 44.7265 138.428 47.7538 135.351C53.4959 129.14 50.1464 122.9 47.7538 120.556C34.1601 113.877 38.0859 106.64 41.748 103.857C47.4902 100.342 49.2187 96.1424 49.3652 94.4823C49.4823 84.6386 54.3945 79.8339 56.8359 78.662C67.8515 74.0917 71.3866 65.9179 71.7773 62.4022Z" fill="#FF3975"/>
<path d="M61.6672 105.773C62.3667 103.364 62.893 100.681 63.1348 99.1698C64.7755 101.396 63.6231 106.348 62.8418 108.545C60.9668 116.514 65.0879 119.971 67.3828 120.703C74.4141 124.219 79.9805 118.164 81.8848 114.697C80.3613 123.955 71.582 124.316 67.3828 123.34C72.3215 136.23 68.8547 143.262 66.5039 145.166C63.6914 148.096 60.9375 154.297 59.9121 157.031C59.1797 158.642 58.3009 157.324 58.1544 157.178C58.0373 157.06 60.84 149.902 62.256 146.338C66.3576 139.658 65.9181 127.246 65.1856 121.875C61.4548 119.971 60.1604 116.563 59.9121 113.619C59.6848 110.923 60.9124 108.371 61.6672 105.773Z" fill="#FF3975"/>
<path d="M110.595 105.773C109.895 103.364 109.369 100.681 109.127 99.1698C107.487 101.396 108.639 106.348 109.42 108.545C111.295 116.514 107.174 119.971 104.879 120.703C97.848 124.219 92.2817 118.164 90.3774 114.697C91.9008 123.955 100.68 124.316 104.879 123.34C99.9406 136.23 103.407 143.262 105.758 145.166C108.571 148.096 111.325 154.297 112.35 157.031C113.082 158.642 113.961 157.324 114.108 157.178C114.225 157.06 111.422 149.902 110.006 146.338C105.905 139.658 106.344 127.246 107.076 121.875C110.807 119.971 112.102 116.563 112.35 113.619C112.577 110.923 111.35 108.371 110.595 105.773Z" fill="#FF3975"/>
<path d="M75.1463 11.1328C76.9041 10.6641 75.8787 9.57031 75.1463 9.08203C53.5838 11.8945 38.2323 24.0234 33.2518 29.7363C47.4315 17.666 67.0897 12.3047 75.1463 11.1328Z" fill="#FF3975"/>
<path d="M96.9176 11.1328C95.1598 10.6641 96.1852 9.57031 96.9176 9.08203C118.48 11.8945 133.832 24.0234 138.812 29.7363C124.632 17.666 104.974 12.3047 96.9176 11.1328Z" fill="#FF3975"/>
<path d="M77.7832 17.5781C71.2402 18.1152 58.2129 23.291 58.4473 39.6972C58.7891 34.3261 63.1348 22.3828 77.7832 17.5781Z" fill="#FF3975"/>
<path d="M94.4792 17.5781C101.022 18.1152 114.049 23.291 113.815 39.6972C113.473 34.3261 109.128 22.3828 94.4792 17.5781Z" fill="#FF3975"/>
<path d="M37.0605 51.2694C34.3652 41.4257 41.8945 37.3046 45.996 36.4745C32.0509 35.4198 30.2245 45.8983 31.0545 51.2694C34.6873 63.1054 44.0916 62.4511 48.3397 60.6444C40.7225 59.8241 37.6464 54.0526 37.0605 51.2694Z" fill="#FF3975"/>
<path d="M135.492 51.2694C138.188 41.4257 130.658 37.3046 126.557 36.4745C140.502 35.4198 142.328 45.8983 141.498 51.2694C137.866 63.1054 128.461 62.4511 124.213 60.6444C131.83 59.8241 134.907 54.0526 135.492 51.2694Z" fill="#FF3975"/>
<path d="M30.3223 63.2812C19.7755 52.3828 27.002 41.9433 31.9336 38.0859C22.7931 49.9218 27.5391 58.9355 31.0546 61.9628C37.9687 69.8144 48.3886 64.6484 52.7343 61.0839C43.5937 71.2792 33.9844 66.7968 30.3223 63.2812Z" fill="#FF3975"/>
<path d="M142.231 63.2812C152.777 52.3828 145.551 41.9433 140.619 38.0859C149.76 49.9218 145.014 58.9355 141.498 61.9628C134.584 69.8144 124.164 64.6484 119.819 61.0839C128.959 71.2792 138.569 66.7968 142.231 63.2812Z" fill="#FF3975"/>
<path d="M86.1328 88.4765C87.401 92.0294 90.197 94.8255 93.75 96.0936C90.197 97.3618 87.401 100.158 86.1328 103.711C84.8646 100.158 82.0686 97.3618 78.5156 96.0936C82.0686 94.8255 84.8646 92.0294 86.1328 88.4765Z" fill="#FF3975"/>
<path d="M86.1328 141.211C87.401 144.764 90.197 147.56 93.75 148.828C90.197 150.096 87.401 152.892 86.1328 156.445C84.8646 152.892 82.0686 150.096 78.5156 148.828C82.0686 147.56 84.8646 144.764 86.1328 141.211Z" fill="#FF3975"/>
<path d="M145.312 72.9491C146.873 77.322 150.314 80.7633 154.687 82.3241C150.314 83.885 146.873 87.3263 145.312 91.6991C143.752 87.3263 140.31 83.885 135.937 82.3241C140.31 80.7633 143.752 77.322 145.312 72.9491Z" fill="#FF3975"/>
<path d="M86.1326 38.9648C87.0106 41.4245 88.9463 43.3603 91.406 44.2382C88.9463 45.1162 87.0106 47.0519 86.1326 49.5117C85.2546 47.0519 83.3189 45.1162 80.8592 44.2382C83.3189 43.3603 85.2546 41.4245 86.1326 38.9648Z" fill="#FF3975"/>
<path d="M118.359 24.3164C118.945 25.9562 120.235 27.2467 121.875 27.832C120.235 28.4173 118.945 29.7078 118.359 31.3476C117.774 29.7078 116.483 28.4173 114.844 27.832C116.483 27.2467 117.774 25.9562 118.359 24.3164Z" fill="#FF3975"/>
<path d="M53.9061 24.6094C54.4915 26.2492 55.7819 27.5397 57.4218 28.125C55.7819 28.7103 54.4915 30.0008 53.9061 31.6406C53.3208 30.0008 52.0304 28.7103 50.3905 28.125C52.0304 27.5397 53.3208 26.2492 53.9061 24.6094Z" fill="#FF3975"/>
<path d="M46.875 45.996C47.4603 47.6358 48.7508 48.9263 50.3906 49.5116C48.7508 50.0969 47.4603 51.3874 46.875 53.0273C46.2897 51.3874 44.9992 50.0969 43.3594 49.5116C44.9992 48.9263 46.2897 47.6358 46.875 45.996Z" fill="#FF3975"/>
<path d="M142.676 129.199C143.261 130.839 144.551 132.129 146.191 132.715C144.551 133.3 143.261 134.59 142.676 136.23C142.09 134.59 140.8 133.3 139.16 132.715C140.8 132.129 142.09 130.839 142.676 129.199Z" fill="#FF3975"/>
<path d="M151.758 90.2343C152.343 91.8741 153.633 93.1646 155.273 93.7499C153.633 94.3352 152.343 95.6257 151.758 97.2655C151.172 95.6257 149.882 94.3352 148.242 93.7499C149.882 93.1646 151.172 91.8741 151.758 90.2343Z" fill="#FF3975"/>
<path d="M29.0039 129.199C29.5892 130.839 30.8797 132.129 32.5195 132.715C30.8797 133.3 29.5892 134.59 29.0039 136.23C28.4186 134.59 27.1281 133.3 25.4883 132.715C27.1281 132.129 28.4186 130.839 29.0039 129.199Z" fill="#FF3975"/>
<path d="M20.2147 89.6483C20.8 91.2881 22.0905 92.5786 23.7303 93.1639C22.0905 93.7492 20.8 95.0397 20.2147 96.6795C19.6294 95.0397 18.3389 93.7492 16.6991 93.1639C18.3389 92.5786 19.6294 91.2881 20.2147 89.6483Z" fill="#FF3975"/>
<path d="M21.0938 60.3515C21.5816 61.718 22.657 62.7934 24.0235 63.2812C22.657 63.7689 21.5816 64.8444 21.0938 66.2109C20.6061 64.8444 19.5307 63.7689 18.1642 63.2812C19.5307 62.7934 20.6061 61.718 21.0938 60.3515Z" fill="#FF3975"/>
<path d="M28.125 72.0701C22.1485 71.8358 18.7989 76.5623 17.8712 78.9549C21.3868 74.1502 26.1719 73.4373 28.125 73.6815C32.6954 73.3299 36.4746 77.0506 37.793 78.9549C36.0352 73.4471 30.6153 72.0701 28.125 72.0701Z" fill="#FF3975"/>
<circle cx="29.2969" cy="83.203" r="1.75781" fill="#FF3975"/>
<circle cx="151.172" cy="63.8671" r="1.17187" fill="#FF3975"/>
<path d="M83.5736 20.5249C83.0971 20.2396 82.7338 19.9092 82.4639 19.5499C80.3279 16.7053 85.2346 13.696 86.1325 10.2539C86.1325 10.3033 86.1355 10.3537 86.1413 10.405C86.5225 13.7511 91.5619 16.183 89.9712 19.1515C89.6689 19.7157 89.205 20.1584 88.6745 20.4974C87.1582 21.4664 85.1176 21.4492 83.5736 20.5249Z" fill="#FF3975"/>
<path d="M50.3686 207.453L47.1149 198.628L43.8612 207.453H50.3686ZM50.5455 207.87H43.6843L42.588 210.927C42.305 211.692 42.1636 212.352 42.1636 212.908C42.1636 213.765 42.4936 214.379 43.1538 214.749C43.814 215.12 44.7453 215.305 45.9478 215.305V215.687H37V215.305C38.6269 215.305 39.8883 214.703 40.7842 213.498C41.2794 212.827 41.916 211.437 42.6941 209.329L48.671 193H49.4137L57.0176 213.36C57.3713 214.309 57.7249 214.877 58.0786 215.062C58.4323 215.224 59.4933 215.305 61.2616 215.305V215.687H48.2466V215.305C50.015 215.305 51.2292 215.247 51.8894 215.131C52.5496 214.992 52.8797 214.726 52.8797 214.332L52.809 213.985L50.5455 207.87Z" fill="#FF3975"/>
<path d="M82.0026 209.017C82.0026 211.518 81.0713 213.406 79.2086 214.68C77.9118 215.56 76.5561 216 75.1414 216C72.4771 216 70.249 215.456 68.4571 214.367C66.4766 213.163 65.4863 211.495 65.4863 209.364V195.571C65.4863 194.922 65.4391 194.506 65.3448 194.32C65.2977 194.228 65.1562 194.135 64.9204 194.042C64.1659 193.764 62.8692 193.625 61.0301 193.625V193.278H74.6817V193.625C73.5971 193.625 72.7129 193.66 72.0291 193.73C71.369 193.799 70.8856 193.892 70.5791 194.008C70.2726 194.123 70.0958 194.228 70.0486 194.32C69.9307 194.529 69.8718 194.946 69.8718 195.571V208.669C69.8718 210.985 70.2254 212.641 70.9328 213.637C71.7816 214.842 73.3141 215.444 75.5305 215.444C76.7565 215.444 77.9472 215.016 79.1025 214.159C80.7294 212.954 81.5428 211.24 81.5428 209.017V199.949C81.5428 197.563 81.1656 195.918 80.4111 195.015C79.6566 194.089 78.4188 193.625 76.6976 193.625V193.278H86.1759V193.625C84.4075 193.625 83.2286 194.112 82.6392 195.085C82.2148 195.779 82.0026 196.949 82.0026 198.594V209.017Z" fill="#FF3975"/>
<path d="M95.7285 203.631H99.0176C100.739 203.631 102.012 203.319 102.837 202.693C103.827 201.952 104.323 200.701 104.323 198.941C104.323 196.995 103.91 195.629 103.085 194.841C102.283 194.031 100.939 193.625 99.053 193.625H97.3554C96.8602 193.625 96.4948 193.66 96.259 193.73C96.0232 193.799 95.87 193.95 95.7992 194.181C95.7521 194.39 95.7285 194.83 95.7285 195.502V203.631ZM110.052 210.684V211.831C110.052 213.197 109.922 214.147 109.663 214.68C109.239 215.56 108.402 216 107.152 216C105.525 216 104.452 215.398 103.934 214.193C103.509 213.221 103.297 211.368 103.297 208.634V207.905C103.297 207.673 103.309 207.43 103.332 207.175C103.332 205.948 103.038 205.125 102.448 204.708C101.859 204.268 101.01 204.048 99.9018 204.048H95.7285V213.36C95.7285 214.054 95.7639 214.494 95.8346 214.68C95.9289 214.865 96.1057 215.016 96.3651 215.131C96.648 215.224 97.2021 215.282 98.0273 215.305C98.8761 215.328 99.7603 215.34 100.68 215.34V215.687H86.2856V215.305C88.7612 215.305 90.2466 215.212 90.7418 215.027C90.9776 214.935 91.1426 214.807 91.2369 214.645C91.3312 214.46 91.3784 214.031 91.3784 213.36V195.502C91.3784 194.853 91.3312 194.448 91.2369 194.285C91.1898 194.193 91.0365 194.1 90.7771 194.008C90.0934 193.753 88.5962 193.625 86.2856 193.625V193.278H100.751C103.297 193.278 105.325 193.95 106.834 195.293C108.036 196.359 108.637 197.459 108.637 198.594C108.637 199.937 108.166 201.037 107.223 201.894C106.091 202.937 104.299 203.597 101.847 203.875C104.346 204.361 105.997 205.739 106.798 208.009C107.199 209.144 107.4 210.858 107.4 213.151C107.4 213.823 107.458 214.309 107.576 214.61C107.694 214.911 107.977 215.062 108.425 215.062C108.92 215.062 109.262 214.68 109.451 213.915C109.639 213.128 109.734 212.051 109.734 210.684H110.052Z" fill="#FF3975"/>
<path d="M124.107 207.453L120.853 198.628L117.6 207.453H124.107ZM124.284 207.87H117.423L116.326 210.927C116.043 211.692 115.902 212.352 115.902 212.908C115.902 213.765 116.232 214.379 116.892 214.749C117.552 215.12 118.484 215.305 119.686 215.305V215.687H110.738V215.305C112.365 215.305 113.627 214.703 114.523 213.498C115.018 212.827 115.654 211.437 116.432 209.329L122.409 193H123.152L130.756 213.36C131.11 214.309 131.463 214.877 131.817 215.062C132.171 215.224 133.232 215.305 135 215.305V215.687H121.985V215.305C123.753 215.305 124.968 215.247 125.628 215.131C126.288 214.992 126.618 214.726 126.618 214.332L126.547 213.985L124.284 207.87Z" fill="#FF3975"/>
</svg>
