<svg width="277" height="266" viewBox="0 0 277 266" fill="none" xmlns="http://www.w3.org/2000/svg">
<path d="M276.678 49.8237V215.242C276.678 226.505 273.903 236.205 269.3 243.912C260.673 258.385 249.17 262.743 234.917 264.525C215.741 267.038 192.471 265.039 164.713 262.428C151.564 261.181 149.084 260.851 140.278 260.62C133.743 260.485 123.869 260.465 108.526 260.99C82.7627 261.987 74.6841 262.508 62.3671 262.922C61.7445 262.947 61.1199 262.978 60.4939 263.011C48.8046 263.619 23.1955 265.683 11.1339 249.784C4.86378 241.519 0 232.507 0 215.242V49.8237C0 3.87817 44.96 2.06934 63.6823 3.63134C71.377 4.2608 74.4281 4.77418 82.7776 5.60929C95.088 6.88347 105.875 7.2823 119.788 5.45328C135.86 3.3298 154.183 1.95063 170.304 1.05524H170.509C196.877 -0.362781 224.703 -0.568284 242.727 1.79508C259.402 3.9702 271.058 18.4265 275.075 35.4584C276.123 39.9385 276.678 44.7475 276.678 49.8237Z" fill="#FCDFE7"/>
<g opacity="0.6">
<path d="M174.672 157.74C174.672 157.74 186.676 65.3894 211.613 69.5879C236.55 73.7866 189.858 129.689 187.215 156.684L174.672 157.74Z" fill="#B2C9C6"/>
</g>
<path d="M175.02 179.679C175.02 179.679 216.043 76.1804 248.916 87.9233C281.789 99.6661 203.211 151.429 192.4 181.921L175.02 179.679Z" fill="#CFD3A3"/>
<path d="M184.731 181.019C191.814 159.825 206.737 139.411 218.008 126.019C230.228 111.5 240.902 101.881 241.008 101.786L240.412 101.122C240.305 101.217 229.585 110.877 217.325 125.444C206.004 138.896 191.012 159.408 183.884 180.736L184.731 181.019Z" fill="#C4C695"/>
<path d="M260.439 173.303C250.834 179.136 257.988 194.253 245.151 195.426C234.293 196.411 233.132 195.779 230.664 199.858C229.818 201.256 229.198 202.777 228.776 204.356C228.271 206.248 227.052 209.199 224.197 210.782C206.759 220.453 171.894 201.77 186.033 179.951C187.054 178.375 188.945 177.251 191.076 176.12C202.643 169.988 208.391 174.284 213.043 156.549C217.698 138.81 237.908 154.954 245.855 151.395C253.803 147.835 260.178 142.88 269.568 149.361C278.961 155.848 270.046 167.476 260.439 173.303Z" fill="#B2C9C6"/>
<g opacity="0.5">
<path d="M198.848 197.88L198.258 197.435C198.454 197.175 218.491 171.173 271.892 151.319L272.149 152.012C218.949 171.791 199.043 197.621 198.848 197.88Z" fill="#FCDFE7"/>
<path d="M225.162 165.521C215.854 161.583 212.852 156.941 212.729 156.746L213.354 156.351C213.383 156.397 216.38 161.003 225.451 164.84L225.162 165.521Z" fill="#FCDFE7"/>
<path d="M228.995 172.633C225.786 169.806 224.225 164.674 224.48 157.792C224.671 152.638 225.82 148.251 225.831 148.208L226.546 148.397C226.5 148.568 222.105 165.578 229.484 172.079L228.995 172.633Z" fill="#FCDFE7"/>
<path d="M242.745 166.524C241.655 166.109 241.04 165.807 241.012 165.793L241.343 165.132C241.472 165.197 254.442 171.541 268.507 166.203L268.769 166.894C257.435 171.195 246.803 168.072 242.745 166.524Z" fill="#FCDFE7"/>
<path d="M255.305 180.267C250.812 177.768 248.637 174.472 247.604 172.147C246.48 169.616 246.426 167.693 246.424 167.612L247.164 167.596C247.165 167.67 247.437 175.047 255.665 179.621L255.305 180.267Z" fill="#FCDFE7"/>
</g>
<path d="M227.476 72.551C228.575 69.3169 229.93 68.7043 231.198 69.1353C232.465 69.5662 233.166 70.8777 232.066 74.1119C230.063 80.0032 226.799 82.0703 226.799 82.0703C226.799 82.0703 225.444 78.5282 227.476 72.551Z" fill="#B2C9C6"/>
<path d="M249.917 138.377C253.208 136.84 254.675 137.429 255.277 138.718C255.879 140.008 255.389 141.511 252.099 143.047C246.104 145.847 242.117 144.865 242.117 144.865C242.117 144.865 243.836 141.217 249.917 138.377Z" fill="#B2C9C6"/>
<path d="M238.116 135.799C239.233 132.57 240.59 131.965 241.856 132.402C243.121 132.84 243.815 134.155 242.699 137.383C240.665 143.264 237.391 145.314 237.391 145.314C237.391 145.314 236.053 141.765 238.116 135.799Z" fill="#B2C9C6"/>
<path d="M136.858 222.658C136.858 222.658 89.1146 125.766 63.3097 139.708C37.5048 153.651 109.688 197.546 122.693 226.192L136.858 222.658Z" fill="#B2C9C6"/>
<path d="M128.624 226.282C128.624 226.282 61.7888 141.641 34.548 161.675C7.30725 181.709 94.6113 207.902 113.118 233.193L128.624 226.282Z" fill="#9BBCB6"/>
<path d="M119.984 230.224C107.52 212.526 87.9987 197.73 73.8171 188.436C58.442 178.359 45.8641 172.4 45.7388 172.341L46.1074 171.559C46.2332 171.618 58.8661 177.603 74.291 187.712C88.5356 197.048 108.149 211.916 120.691 229.726L119.984 230.224Z" fill="#FCDFE7"/>
<path d="M156.02 261.606C155.034 261.504 154.047 261.422 153.061 261.319C149.3 260.969 144.984 260.743 140.278 260.62C136.291 260.538 132.037 260.517 127.597 260.558C127.083 260.558 126.549 260.558 126.036 260.579C122.665 260.62 119.212 260.682 115.698 260.784C113.334 260.846 110.93 260.908 108.526 260.99C105.874 261.093 103.244 261.195 100.572 261.278C100.49 261.298 100.387 261.298 100.305 261.298C99.2363 261.339 98.1676 261.401 97.0991 261.442C96.3591 261.463 95.5986 261.504 94.8384 261.524C89.8855 261.75 84.9942 261.976 80.2468 262.182C73.9171 262.47 67.8748 262.737 62.3668 262.922C61.2984 259.983 60.4558 256.736 59.0996 253.797V253.776C59.0171 253.633 58.9554 253.509 58.8731 253.345V253.324C57.3729 250.221 55.2354 247.467 51.6184 245.782C47.7755 243.994 43.9321 241.589 40.6646 238.815C40.3974 238.589 40.1301 238.363 39.8631 238.116C33.4512 232.382 29.6286 225.271 33.2457 219.086C33.3278 218.942 33.4305 218.798 33.5128 218.654C34.1702 217.626 35.0335 216.64 36.1229 215.694C47.5083 205.83 56.5919 211.399 67.5459 214.893C71.4099 216.147 76.9381 213.927 82.8363 211.563C86.1865 210.207 89.6389 208.789 92.9891 207.926C93.1326 207.905 93.2558 207.864 93.3792 207.844C94.7354 207.494 96.0719 207.268 97.3868 207.165C97.7976 207.124 98.1883 207.104 98.579 207.104H98.8871C104.025 207.104 108.526 209.488 111.362 216.866C111.444 217.071 111.526 217.277 111.609 217.462C111.938 218.305 112.266 219.126 112.595 219.887C112.945 220.668 113.273 221.408 113.602 222.106C113.602 222.106 113.602 222.127 113.623 222.147C116.438 228.066 119.151 231.19 122.172 233.04C127.474 236.287 133.722 235.65 143.052 239.329C146.033 240.5 148.663 241.712 150.245 243.624C155.157 249.625 156.76 255.79 156.02 261.606Z" fill="#CFD3A3"/>
<path d="M127.597 260.559C127.083 260.559 126.549 260.559 126.036 260.579C116.623 253.53 100.264 243.069 75.7458 233.245C75.3761 233.081 75.0063 232.937 74.6363 232.794C62.7368 228.067 48.9469 223.504 33.1221 219.558L33.2456 219.086L33.3687 218.613C33.4099 218.633 33.4716 218.633 33.5127 218.654C57.6195 224.696 77.0612 232.136 92.2692 239.411C92.557 239.555 92.8653 239.699 93.153 239.843H93.1735C109.286 247.631 120.569 255.194 127.597 260.559Z" fill="#C4C695"/>
<path d="M96.7741 230.413C108.414 223.883 111.675 217.352 111.808 217.078L110.93 216.651C110.898 216.716 107.639 223.199 96.2959 229.562L96.7741 230.413Z" fill="#C4C695"/>
<path d="M92.7843 240.308C96.5824 236.128 97.8807 229.164 96.5385 220.17C95.5337 213.433 93.3846 207.845 93.363 207.789L92.4533 208.142C92.5377 208.36 100.795 230.041 92.0615 239.652L92.7843 240.308Z" fill="#C4C695"/>
<path d="M73.8462 234.302C75.215 233.598 75.9787 233.112 76.0134 233.089L75.4826 232.271C75.3228 232.374 59.2286 242.598 39.9888 237.651L39.7461 238.595C55.2493 242.582 68.7462 236.927 73.8462 234.302Z" fill="#C4C695"/>
<path d="M59.3719 254.176C64.9035 250.24 67.2749 245.595 68.2904 242.392C69.3956 238.906 69.1849 236.375 69.1759 236.269L68.2035 236.356C68.2119 236.453 68.934 246.174 58.8057 253.381L59.3719 254.176Z" fill="#C4C695"/>
<path d="M28.5874 197.031C23.8776 195.715 22.8948 193.827 23.4107 191.981C23.9265 190.135 25.7457 189.03 30.4551 190.346C39.0343 192.743 42.2469 197.244 42.2469 197.244C42.2469 197.244 37.2914 199.463 28.5874 197.031Z" fill="#B2C9C6"/>
<path d="M107.634 131.284C107.634 131.284 103.047 158.68 112.726 174.673C117.805 183.064 120.261 181.314 122.43 184.634C127.765 192.794 125.576 208.381 128.551 215.178C132.599 224.425 138.251 223.496 138.251 223.496L212.034 204.124C212.034 204.124 208.806 196.907 204.632 178.626C203.106 171.943 199.816 164.123 203.645 153.879C208.984 139.593 203.625 121.259 200.283 103.999C198.715 95.9059 194.762 80.8538 192.532 75.5315C190.181 69.9236 189.226 48.0476 181.045 48.4538C166.589 49.1716 173.985 68.5162 173.025 78.7132C172.066 88.9102 107.634 131.284 107.634 131.284Z" fill="#F7B686"/>
<path d="M158.484 181.596C158.263 181.622 158.033 181.544 157.871 181.366C157.73 181.21 154.395 177.478 152.736 171.188C151.762 167.495 151.575 163.687 152.182 159.869C152.936 155.117 154.928 150.342 158.103 145.68C158.325 145.354 158.769 145.27 159.095 145.491C159.421 145.714 159.505 146.158 159.283 146.484C156.228 150.971 154.313 155.55 153.592 160.093C153.017 163.714 153.194 167.324 154.117 170.823C155.688 176.78 158.898 180.372 158.93 180.407C159.195 180.7 159.173 181.151 158.88 181.416C158.766 181.519 158.627 181.579 158.484 181.596Z" fill="#CC2E5E"/>
<path d="M188.131 154.467L178.739 52.4551C178.588 51.1349 178.192 50.0223 177.626 49.0981C175.476 45.5902 170.894 44.685 167.593 45.0621L129.365 49.5507L128.685 49.6451L115.635 51.1727L111.938 51.6065C107.751 52.0969 104.753 55.8877 105.243 60.0746L105.715 65.2043L105.978 67.958L106.205 70.4285L106.638 75.1245L108.015 89.9104L108.468 94.682V94.701L108.808 98.3222L109.015 100.51V100.717L109.487 105.696L110.335 114.843L110.769 119.483V119.501L110.825 120.049V120.162L111.599 128.479L111.618 128.63L111.995 132.609L112.372 136.702L112.429 137.268V137.286L115.012 165.18C115.503 169.348 119.595 171.781 123.782 171.29L151.996 167.198H152.015L153.411 166.99L181.436 162.935C185.623 162.445 188.621 158.654 188.131 154.467Z" fill="#6F4975"/>
<path d="M167.848 46.99L112.135 53.5291C109.023 53.8943 106.787 56.6434 107.143 59.6692L117.285 160.037C118.035 166.899 121.691 166.204 124.803 165.839L180.765 157.699C183.878 157.334 186.058 153.456 185.703 150.43L176.476 52.186C176.121 49.1599 170.961 46.6246 167.848 46.99Z" fill="#96B4E0"/>
<path d="M169.814 126.43L127.022 131.452C124.631 131.733 122.914 133.844 123.187 136.168L124.379 145.504C124.955 150.775 127.763 150.241 130.154 149.961L173.137 143.709C175.528 143.428 177.203 140.45 176.93 138.125L176.442 130.42C176.296 126.403 172.205 126.149 169.814 126.43Z" fill="white"/>
<path d="M168.482 128.12L128.839 132.773C126.624 133.033 125.014 134.821 125.243 136.768L126.25 144.586C126.728 149.001 129.332 148.523 131.546 148.264L171.378 142.578C173.593 142.318 175.173 139.803 174.945 137.856L174.573 131.399C174.479 128.031 170.697 127.86 168.482 128.12Z" fill="#FF3975"/>
<path d="M137.613 139.829C137.578 139.533 137.309 139.322 137.013 139.357L134.902 139.608L136.396 137.951C136.596 137.729 136.578 137.388 136.357 137.189C136.136 136.989 135.794 137.007 135.595 137.228L133.938 139.066L133.775 136.53C133.756 136.232 133.5 136.007 133.202 136.026C132.905 136.045 132.679 136.301 132.698 136.599L132.865 139.196L130.594 137.309C130.365 137.119 130.024 137.15 129.834 137.379C129.643 137.609 129.675 137.949 129.904 138.139L132.076 139.944L129.56 140.243C129.264 140.278 129.053 140.547 129.088 140.843C129.121 141.117 129.354 141.318 129.623 141.318C129.645 141.318 129.666 141.317 129.688 141.315L132.178 141.019L130.657 142.705C130.458 142.926 130.476 143.267 130.697 143.467C130.8 143.56 130.929 143.606 131.058 143.606C131.205 143.606 131.352 143.545 131.459 143.427L133.025 141.69L133.164 143.856C133.182 144.142 133.419 144.361 133.701 144.361C133.713 144.361 133.725 144.361 133.737 144.36C134.034 144.341 134.26 144.084 134.241 143.787L134.102 141.628L135.879 143.105C135.98 143.188 136.102 143.229 136.224 143.229C136.379 143.229 136.532 143.163 136.639 143.034C136.829 142.805 136.798 142.465 136.569 142.275L134.697 140.719L137.141 140.429C137.437 140.393 137.648 140.125 137.613 139.829Z" fill="white"/>
<path d="M148.804 138.276C148.769 137.98 148.5 137.768 148.204 137.804L146.093 138.055L147.587 136.397C147.786 136.176 147.769 135.835 147.548 135.635C147.326 135.436 146.985 135.454 146.785 135.675L145.129 137.513L144.966 134.977C144.947 134.679 144.691 134.454 144.393 134.473C144.095 134.492 143.87 134.748 143.889 135.046L144.056 137.643L141.785 135.756C141.555 135.566 141.215 135.597 141.025 135.826C140.834 136.056 140.866 136.396 141.095 136.586L143.267 138.391L140.751 138.69C140.455 138.725 140.244 138.994 140.279 139.29C140.312 139.564 140.545 139.766 140.814 139.766C140.836 139.766 140.857 139.764 140.879 139.762L143.368 139.466L141.848 141.152C141.649 141.373 141.666 141.714 141.888 141.914C141.991 142.007 142.12 142.053 142.249 142.053C142.396 142.053 142.543 141.992 142.65 141.874L144.215 140.137L144.354 142.303C144.373 142.589 144.61 142.808 144.892 142.808C144.904 142.808 144.915 142.808 144.927 142.807C145.225 142.788 145.45 142.531 145.431 142.234L145.293 140.075L147.07 141.552C147.171 141.635 147.293 141.676 147.414 141.676C147.569 141.676 147.723 141.61 147.83 141.481C148.02 141.252 147.989 140.912 147.76 140.722L145.888 139.166L148.331 138.876C148.627 138.84 148.839 138.572 148.804 138.276Z" fill="white"/>
<path d="M160.593 136.673C160.558 136.377 160.29 136.165 159.994 136.201L157.882 136.452L159.377 134.794C159.576 134.573 159.558 134.232 159.337 134.032C159.116 133.833 158.775 133.85 158.575 134.071L156.918 135.909L156.755 133.373C156.736 133.076 156.48 132.85 156.182 132.869C155.885 132.888 155.659 133.145 155.678 133.442L155.845 136.04L153.574 134.153C153.345 133.963 153.005 133.994 152.814 134.223C152.624 134.452 152.655 134.792 152.884 134.983L155.056 136.788L152.541 137.087C152.245 137.122 152.033 137.39 152.069 137.686C152.101 137.96 152.334 138.162 152.604 138.162C152.625 138.162 152.647 138.161 152.668 138.158L155.158 137.862L153.638 139.548C153.438 139.77 153.456 140.111 153.677 140.31C153.78 140.403 153.91 140.449 154.038 140.449C154.186 140.449 154.333 140.389 154.439 140.271L156.005 138.534L156.144 140.7C156.162 140.985 156.399 141.205 156.682 141.205C156.693 141.205 156.705 141.204 156.717 141.204C157.014 141.184 157.24 140.928 157.221 140.63L157.082 138.471L158.86 139.948C158.96 140.032 159.082 140.073 159.204 140.073C159.359 140.073 159.513 140.006 159.619 139.878C159.81 139.649 159.778 139.309 159.549 139.118L157.677 137.563L160.121 137.272C160.417 137.237 160.629 136.969 160.593 136.673Z" fill="white"/>
<path d="M172.406 134.959C172.371 134.663 172.103 134.451 171.807 134.487L169.695 134.738L171.19 133.08C171.389 132.859 171.371 132.518 171.15 132.318C170.929 132.119 170.588 132.136 170.388 132.358L168.731 134.195L168.568 131.659C168.549 131.362 168.293 131.136 167.995 131.155C167.698 131.174 167.472 131.431 167.491 131.728L167.658 134.326L165.387 132.439C165.158 132.249 164.818 132.28 164.627 132.509C164.437 132.738 164.468 133.078 164.697 133.269L166.869 135.074L164.354 135.373C164.058 135.408 163.846 135.676 163.882 135.972C163.914 136.246 164.147 136.448 164.417 136.448C164.438 136.448 164.46 136.447 164.481 136.444L166.971 136.148L165.451 137.834C165.251 138.056 165.269 138.397 165.49 138.596C165.593 138.689 165.723 138.735 165.851 138.735C165.999 138.735 166.146 138.675 166.252 138.557L167.818 136.82L167.957 138.986C167.975 139.271 168.213 139.491 168.495 139.491C168.506 139.491 168.518 139.49 168.53 139.49C168.827 139.47 169.053 139.214 169.034 138.916L168.895 136.757L170.673 138.234C170.773 138.318 170.896 138.359 171.017 138.359C171.172 138.359 171.326 138.292 171.432 138.164C171.623 137.935 171.591 137.595 171.362 137.404L169.491 135.849L171.934 135.558C172.23 135.523 172.442 135.255 172.406 134.959Z" fill="white"/>
<path d="M167.826 97.7476C167.31 100.209 166.349 102.467 165.048 104.487C163.44 106.986 161.308 109.118 158.848 110.815C158.344 111.162 157.827 111.491 157.299 111.8C151.987 114.913 145.452 116.13 139.364 114.852C137.922 114.549 136.565 114.1 135.297 113.522C133.699 112.794 132.245 111.862 130.94 110.764C130.202 110.141 129.512 109.465 128.873 108.743L128.873 108.742C124.035 103.277 122.071 95.1226 123.747 87.1418C126.346 74.7618 135.818 65.7504 150.284 69.3096C162.248 72.2531 170.425 85.3675 167.826 97.7476Z" fill="white"/>
<path d="M130.864 106.557C129.254 105.062 128.004 103.317 127.091 101.419C125.961 99.0714 125.351 96.487 125.221 93.8452C125.195 93.305 125.189 92.7627 125.203 92.2195C125.337 86.7627 127.467 81.2169 131.264 77.1281C132.164 76.1596 133.134 75.3214 134.16 74.6097C135.451 73.712 136.83 73.0147 138.263 72.5068C139.075 72.2202 139.905 71.9936 140.746 71.8274L140.747 71.828C147.111 70.5673 154.157 72.708 159.378 77.5568C167.476 85.0784 169.838 96.3555 160.422 105.838C152.634 113.68 138.962 114.079 130.864 106.557Z" fill="#FF3975"/>
<path d="M153.912 92.1866L137.244 94.0025L136.449 86.7114C136.216 84.5691 136.831 82.4643 138.18 80.7845C139.53 79.1047 141.453 78.051 143.596 77.8176L144.224 77.7492C146.367 77.5157 148.471 78.1306 150.151 79.4803C151.831 80.83 152.885 82.7532 153.118 84.8954L153.912 92.1866ZM139.386 91.3361L151.246 90.044L150.713 85.1574C150.376 82.061 147.582 79.8165 144.486 80.1538L143.857 80.2223C141.783 80.5846 140.111 81.8221 139.317 83.5253C138.911 84.3966 138.74 85.4016 138.854 86.4495L139.386 91.3361Z" fill="white"/>
<path d="M152.514 104.074L141.168 105.31C139.055 105.54 137.156 104.014 136.926 101.901L135.529 89.0795C135.456 88.4133 135.937 87.8144 136.604 87.7418L153.189 85.935C153.855 85.8624 154.454 86.3437 154.526 87.0098L155.923 99.831C156.153 101.944 154.627 103.843 152.514 104.074Z" fill="white"/>
<path d="M146.632 93.5177C146.573 92.9674 146.078 92.5698 145.527 92.6298C144.977 92.6897 144.579 93.1846 144.639 93.735C144.669 94.0086 144.806 94.2443 145.005 94.405L145.426 98.2698C145.468 98.6607 145.82 98.943 146.211 98.9005C146.602 98.8579 146.884 98.5064 146.841 98.1156L146.42 94.2508C146.579 94.051 146.662 93.7912 146.632 93.5177Z" fill="#E28569"/>
<path d="M91.233 111.804L107.33 118.644C111.34 121.389 116.817 120.364 119.563 116.354C122.309 112.345 121.284 106.869 117.274 104.122L106.881 97.0042C99.7443 92.2653 93.3867 90.1573 88.97 96.6167C82.734 105.736 87.3556 109.148 91.233 111.804Z" fill="#F7B686"/>
<path d="M234.917 264.525C236.311 264.351 237.677 264.151 239.018 263.921C229.023 235.89 211.909 187.78 211.593 186.887C210.933 185.076 208.934 184.001 205.841 183.681H205.822C199.183 183.002 187.472 185.831 173.025 192.45C155.108 200.673 136.984 197.807 126.083 197.373H126.064C124.046 197.279 122.273 197.298 120.802 197.467C117.421 197.86 114.921 214.307 113.316 232.06C113.216 233.168 112.921 248.408 112.669 260.857C125.678 260.47 134.351 260.498 140.278 260.62C149.084 260.851 151.563 261.181 164.713 262.428C192.471 265.04 215.741 267.038 234.917 264.525Z" fill="#CC2E5E"/>
<path d="M113.875 116.233C113.786 116.233 113.697 116.224 113.609 116.207C113.309 116.152 108.504 115.268 106.273 113.675C105.354 113.018 105.266 111.642 106.025 109.799C106.58 108.451 107.543 106.961 108.6 105.813C109.467 104.87 110.739 103.786 111.871 103.97C114.445 104.389 118.291 106.729 118.222 109.3C118.17 111.269 116.555 114.58 115.081 115.741C114.665 116.069 114.261 116.233 113.875 116.233ZM111.599 105.059C110.556 105.059 108.15 107.556 107.052 110.222C106.533 111.482 106.481 112.459 106.919 112.771C108.969 114.235 113.764 115.106 113.812 115.114L113.83 115.118C113.951 115.144 114.162 115.05 114.393 114.868C115.62 113.902 117.068 110.92 117.112 109.27C117.159 107.477 113.817 105.413 111.692 105.066C111.663 105.062 111.632 105.059 111.599 105.059Z" fill="#CC2E5E"/>
<path d="M92.2024 90.1304L107.153 99.2072C110.728 102.498 116.295 102.269 119.588 98.6942C122.88 95.1194 122.651 89.5531 119.076 86.2596L109.81 77.7263C103.426 72.0135 97.4365 69.016 92.1393 74.776C84.6607 82.9079 88.7457 86.9465 92.2024 90.1304Z" fill="#F7B686"/>
<path d="M114.177 97.7739C114.017 97.7739 113.863 97.7475 113.716 97.6948C113.426 97.5981 108.798 96.0335 106.819 94.1379C106.003 93.3562 106.113 91.9812 107.129 90.2661C107.872 89.0117 109.038 87.6749 110.249 86.6904C111.242 85.8823 112.656 84.9911 113.75 85.3356C114.976 85.7223 116.416 86.6235 117.509 87.6879C118.847 88.9915 119.473 90.3523 119.272 91.5204C118.938 93.4615 116.865 96.5069 115.24 97.445C114.86 97.6641 114.504 97.7739 114.177 97.7739ZM113.217 86.3673C112.112 86.3673 109.505 88.4337 108.085 90.8321C107.391 92.0048 107.2 92.9641 107.588 93.3356C109.407 95.0781 114.028 96.6275 114.074 96.6431L114.091 96.6491C114.208 96.6921 114.43 96.63 114.685 96.4829C116.037 95.7026 117.897 92.9587 118.177 91.3319C118.482 89.5641 115.469 87.0421 113.416 86.3952C113.357 86.3764 113.29 86.3673 113.217 86.3673Z" fill="#CC2E5E"/>
<path d="M98.7461 133.426L113.046 136.87C116.752 138.591 121.153 136.982 122.876 133.276C124.598 129.569 122.989 125.169 119.282 123.446L109.675 118.982C103.099 116.04 97.5339 115.172 94.7649 121.142C90.8559 129.571 95.1619 131.76 98.7461 133.426Z" fill="#F7B686"/>
<path d="M117.958 134.067C117.943 134.067 117.929 134.067 117.914 134.066C117.645 134.063 113.527 133.993 111.442 132.973C110.924 132.72 110.133 131.957 110.652 129.693C111.185 127.369 113.057 123.987 114.779 123.98C114.786 123.98 114.793 123.98 114.8 123.98C117.025 123.98 120.569 125.416 120.873 127.597C121.106 129.258 120.214 132.265 119.138 133.447C118.764 133.859 118.367 134.067 117.958 134.067ZM114.799 125.091C114.794 125.091 114.789 125.091 114.784 125.091C113.982 125.095 112.27 127.604 111.735 129.942C111.492 131 111.569 131.799 111.93 131.975C113.815 132.897 117.894 132.955 117.935 132.955L117.953 132.956C117.995 132.957 118.128 132.907 118.316 132.7C119.169 131.762 119.959 129.079 119.774 127.751C119.571 126.303 116.581 125.091 114.799 125.091Z" fill="#CC2E5E"/>
<path d="M112.926 102.152C106.807 102.152 96.0668 93.2296 95.5843 92.826C95.349 92.6292 95.3179 92.2789 95.5146 92.0436C95.7113 91.8084 96.0619 91.7772 96.297 91.974C96.3278 91.9999 99.4107 94.5696 103.131 96.9523C107.961 100.045 111.649 101.429 113.798 100.953C114.097 100.887 114.394 101.076 114.46 101.376C114.526 101.675 114.337 101.972 114.038 102.038C113.689 102.115 113.317 102.152 112.926 102.152Z" fill="#CC2E5E"/>
<path d="M112.012 120.829C108.29 120.829 102.331 117.17 102.052 116.998C101.791 116.837 101.711 116.494 101.872 116.233C102.033 115.973 102.376 115.892 102.637 116.053C104.625 117.283 110.333 120.32 112.836 119.62C113.132 119.538 113.438 119.71 113.521 120.006C113.603 120.301 113.431 120.608 113.135 120.69C112.794 120.785 112.416 120.829 112.012 120.829Z" fill="#CC2E5E"/>
<path d="M186.022 65.643C185.279 65.6431 184.356 65.4803 183.373 64.9213C182.697 64.5367 181.782 63.4222 181.639 58.2049C181.564 55.4555 181.748 52.8173 181.75 52.7909C181.772 52.4849 182.038 52.2544 182.344 52.2765C182.65 52.2981 182.88 52.5638 182.859 52.8697C182.857 52.8958 182.676 55.4867 182.75 58.1823C182.882 62.9959 183.681 63.8184 183.923 63.9558C185.719 64.9773 187.222 64.3409 187.285 64.3131C187.565 64.1907 187.893 64.3167 188.017 64.5959C188.141 64.8749 188.018 65.2011 187.739 65.3269C187.692 65.3487 187.02 65.643 186.022 65.643Z" fill="#CC2E5E"/>
<path d="M129.491 185.884C129.449 185.889 129.406 185.891 129.363 185.888C123.043 185.499 119.21 183.234 117.108 181.403C114.792 179.386 114.002 177.447 113.97 177.366C113.824 176.999 114.003 176.584 114.369 176.438C114.734 176.292 115.149 176.47 115.296 176.835C115.303 176.852 116.025 178.588 118.113 180.384C120.045 182.045 123.58 184.101 129.45 184.462C129.844 184.487 130.143 184.825 130.119 185.219C130.098 185.569 129.827 185.845 129.491 185.884Z" fill="#CC2E5E"/>
<path d="M115.378 138.264C115.36 138.264 115.343 138.264 115.326 138.263C111.576 138.247 97.963 133.582 97.3853 133.383C97.0952 133.283 96.941 132.968 97.0404 132.677C97.1402 132.387 97.4561 132.233 97.7464 132.333C97.886 132.381 111.763 137.137 115.331 137.153C115.346 137.153 115.362 137.153 115.378 137.153C118.773 137.153 120.402 135.542 120.418 135.526C120.633 135.307 120.985 135.305 121.203 135.52C121.422 135.736 121.424 136.087 121.209 136.306C121.13 136.386 119.233 138.264 115.378 138.264Z" fill="#CC2E5E"/>
<path d="M128.465 217.487C128.261 215.752 129.653 213.715 131.351 213.305C133.567 212.77 135.451 214.085 135.654 215.82C135.893 217.851 134.331 219.983 132.232 220.23C130.497 220.433 128.669 219.222 128.465 217.487Z" fill="#FF3975"/>
<path d="M132.034 136.327C128.804 134.92 125.292 137.463 123.604 140.605C116.912 153.062 103.19 182.704 99.2477 182.13C96.6728 181.754 97.9116 178.096 92.1533 177.138C87.4992 176.363 86.1788 180.496 83.6942 180.444C80.1141 180.37 80.674 179.105 77.5264 177.637C72.762 175.415 70.031 181.807 66.4136 179.933C62.7977 178.06 60.1528 172.639 53.8832 176.411C49.7417 178.902 46.9678 184.965 39.7046 209.343C35.8562 222.258 32.3722 250.608 31.1592 261.677C42.0339 264.22 53.6497 263.367 60.4937 263.01C61.1199 262.978 61.7443 262.947 62.367 262.922C74.5528 262.512 82.593 261.998 107.713 261.021C115.149 250.049 117.075 238.868 120.144 229.54C121.91 224.18 123.612 217.578 115.672 207.448C119.948 189.86 144.621 141.815 132.034 136.327Z" fill="#F7B686"/>
<path d="M113.671 222.482L112.667 222.442C112.88 217.074 115.085 207.725 115.179 207.329L116.157 207.561C116.134 207.657 113.881 217.212 113.671 222.482Z" fill="#CC2E5E"/>
<path d="M130.507 147.877C129.605 147.877 128.448 147.642 127.213 147.096C125.654 146.405 124.787 145.502 124.834 144.617C124.946 142.499 127.87 139.262 128.029 139.088C128.226 138.857 128.577 138.774 129.101 138.834C130.645 139.01 133.799 140.574 134.119 141.197C134.494 141.926 133.399 146.148 132.143 147.416C131.853 147.708 131.272 147.877 130.507 147.877ZM128.801 139.247C128.58 139.247 128.423 139.289 128.355 139.369L128.35 139.376C128.32 139.408 125.368 142.662 125.264 144.64C125.228 145.326 126.022 146.097 127.387 146.701C129.186 147.497 131.265 147.689 131.836 147.112C133.058 145.879 133.965 141.84 133.736 141.394C133.554 141.04 130.683 139.448 129.052 139.263C128.961 139.252 128.877 139.247 128.801 139.247Z" fill="#F59A6D"/>
<path d="M102.73 179.661C102.624 179.661 102.517 179.63 102.424 179.565C102.179 179.395 102.118 179.059 102.288 178.814C102.343 178.734 107.893 170.684 114.273 157.647C114.404 157.379 114.727 157.268 114.995 157.399C115.262 157.531 115.373 157.854 115.242 158.121C108.823 171.238 103.23 179.348 103.174 179.429C103.07 179.58 102.901 179.661 102.73 179.661Z" fill="#CC2E5E"/>
<path d="M115.672 207.988C115.624 207.988 115.576 207.982 115.527 207.968C115.24 207.888 115.072 207.591 115.152 207.304C117.156 200.088 131.796 160.555 131.944 160.157C132.047 159.878 132.357 159.735 132.637 159.839C132.916 159.942 133.059 160.252 132.955 160.532C132.808 160.93 118.184 200.42 116.192 207.593C116.125 207.832 115.908 207.988 115.672 207.988Z" fill="#CC2E5E"/>
</svg>
