<svg width="360" height="396" viewBox="0 0 360 396" fill="none" xmlns="http://www.w3.org/2000/svg">
<path d="M128.482 308.88C130.336 308.88 132.229 308.88 134.161 308.88C138.976 308.785 143.42 308.476 147.57 308.001V217.539H128.482V308.88Z" fill="#FF3975"/>
<path d="M163.79 304.92C170.4 303.143 176.798 300.652 182.869 297.491V217.499H163.79V304.92Z" fill="#FF3975"/>
<path d="M199.089 287.67C205.425 283.576 211.27 280.012 218.177 278.23V217.539H199.089V287.67Z" fill="#FF3975"/>
<path d="M234.397 277.382C241.224 278.174 247.449 279.988 253.484 281.944V217.539H234.397V277.382Z" fill="#FF3975"/>
<path d="M38.044 246.375C39.1528 249.411 40.354 252.379 41.6476 255.277V217.539H31.5654C32.5298 227.381 34.7058 237.066 38.044 246.375Z" fill="#FF3975"/>
<path d="M57.8677 280.994C63.3531 287.159 69.7985 292.399 76.9549 296.509V217.539H57.8677V280.994Z" fill="#FF3975"/>
<path d="M93.175 303.613C99.3974 305.578 105.786 306.97 112.262 307.771V217.539H93.175V303.613Z" fill="#FF3975"/>
<path d="M269.704 286.839C275.944 288.398 282.43 288.71 288.791 287.757V217.539H269.704V286.839Z" fill="#FF3975"/>
<path d="M316.052 111.379C310.689 100.575 304.078 90.4367 296.355 81.172C263.922 42.768 198.424 54.743 173.207 74.5668C147.989 94.3905 146.778 122.023 125.148 129.215C103.519 136.406 86.7045 122.609 57.8678 140.033C38.3529 151.826 30.1478 179.855 30.9398 207.916H334.561C334.711 205.627 334.838 203.386 334.925 201.215C336.395 170.151 329.898 139.226 316.052 111.379ZM59.4993 169.741L55.864 167.833L52.2288 169.741L52.9257 165.694L49.9795 162.827L54.0424 162.233L55.864 158.55L57.6856 162.233L61.7486 162.827L58.8023 165.694L59.4993 169.741ZM142.493 177.733L137.25 184.536L135.064 176.22L127.009 173.329L134.209 168.688L134.47 160.134L141.099 165.544L149.32 163.152L146.223 171.135L151.039 178.208L142.493 177.733ZM183.043 124.914L182.362 129.856L178.854 126.308L173.943 127.179L176.248 122.76L173.872 118.356L178.798 119.148L182.259 115.553L183.051 120.479L187.534 122.665L183.043 124.914ZM201.592 201.097L197.632 199.006L193.672 201.097L194.464 196.669L191.241 193.501L195.692 192.852L197.68 188.829L199.667 192.852L204.118 193.501L200.895 196.669L201.592 201.097ZM256.739 70.979L254.656 69.886L252.573 70.979L252.969 68.6584L251.29 67.019L253.618 66.6784L254.656 64.5717L255.694 66.6784L258.022 67.019L256.343 68.6584L256.739 70.979ZM318.515 180.695L313.264 177.931L307.997 180.695L309.003 174.834L304.742 170.676L310.627 169.821L313.264 164.49L315.901 169.821L321.786 170.676L317.525 174.834L318.515 180.695Z" fill="#FF3975"/>
<path d="M305.011 282.142C305.922 281.667 306.841 281.16 307.775 280.613C314.864 276.487 320.154 269.066 324.098 259.95V217.539H305.011V282.142Z" fill="#FF3975"/>
<g opacity="0.7">
<path d="M128.482 308.88C130.336 308.88 132.229 308.88 134.161 308.88C138.976 308.785 143.42 308.476 147.57 308.001V217.539H128.482V308.88Z" fill="white"/>
<path d="M163.79 304.92C170.4 303.143 176.798 300.652 182.869 297.491V217.499H163.79V304.92Z" fill="white"/>
<path d="M199.089 287.67C205.425 283.576 211.27 280.012 218.177 278.23V217.539H199.089V287.67Z" fill="white"/>
<path d="M234.397 277.382C241.224 278.174 247.449 279.988 253.484 281.944V217.539H234.397V277.382Z" fill="white"/>
<path d="M38.044 246.375C39.1528 249.411 40.354 252.379 41.6476 255.277V217.539H31.5654C32.5298 227.381 34.7058 237.066 38.044 246.375Z" fill="white"/>
<path d="M57.8677 280.994C63.3531 287.159 69.7985 292.399 76.9549 296.509V217.539H57.8677V280.994Z" fill="white"/>
<path d="M93.175 303.613C99.3974 305.578 105.786 306.97 112.262 307.771V217.539H93.175V303.613Z" fill="white"/>
<path d="M269.704 286.839C275.944 288.398 282.43 288.71 288.791 287.757V217.539H269.704V286.839Z" fill="white"/>
<path d="M316.052 111.379C310.689 100.575 304.078 90.4367 296.355 81.172C263.922 42.768 198.424 54.743 173.207 74.5668C147.989 94.3905 146.778 122.023 125.148 129.215C103.519 136.406 86.7045 122.609 57.8678 140.033C38.3529 151.826 30.1478 179.855 30.9398 207.916H334.561C334.711 205.627 334.838 203.386 334.925 201.215C336.395 170.151 329.898 139.226 316.052 111.379ZM59.4993 169.741L55.864 167.833L52.2288 169.741L52.9257 165.694L49.9795 162.827L54.0424 162.233L55.864 158.55L57.6856 162.233L61.7486 162.827L58.8023 165.694L59.4993 169.741ZM142.493 177.733L137.25 184.536L135.064 176.22L127.009 173.329L134.209 168.688L134.47 160.134L141.099 165.544L149.32 163.152L146.223 171.135L151.039 178.208L142.493 177.733ZM183.043 124.914L182.362 129.856L178.854 126.308L173.943 127.179L176.248 122.76L173.872 118.356L178.798 119.148L182.259 115.553L183.051 120.479L187.534 122.665L183.043 124.914ZM201.592 201.097L197.632 199.006L193.672 201.097L194.464 196.669L191.241 193.501L195.692 192.852L197.68 188.829L199.667 192.852L204.118 193.501L200.895 196.669L201.592 201.097ZM256.739 70.979L254.656 69.886L252.573 70.979L252.969 68.6584L251.29 67.019L253.618 66.6784L254.656 64.5717L255.694 66.6784L258.022 67.019L256.343 68.6584L256.739 70.979ZM318.515 180.695L313.264 177.931L307.997 180.695L309.003 174.834L304.742 170.676L310.627 169.821L313.264 164.49L315.901 169.821L321.786 170.676L317.525 174.834L318.515 180.695Z" fill="white"/>
<path d="M305.011 282.142C305.922 281.667 306.841 281.16 307.775 280.613C314.864 276.487 320.154 269.066 324.098 259.95V217.539H305.011V282.142Z" fill="white"/>
</g>
<path d="M248.597 339.483C272.65 339.483 292.149 336.525 292.149 332.877C292.149 329.229 272.65 326.272 248.597 326.272C224.544 326.272 205.045 329.229 205.045 332.877C205.045 336.525 224.544 339.483 248.597 339.483Z" fill="#FF3975"/>
<path opacity="0.5" d="M248.597 339.483C272.65 339.483 292.149 336.525 292.149 332.877C292.149 329.229 272.65 326.272 248.597 326.272C224.544 326.272 205.045 329.229 205.045 332.877C205.045 336.525 224.544 339.483 248.597 339.483Z" fill="white"/>
<path d="M115.842 329.876C133.925 329.876 148.583 326.919 148.583 323.271C148.583 319.623 133.925 316.665 115.842 316.665C97.7596 316.665 83.1008 319.623 83.1008 323.271C83.1008 326.919 97.7596 329.876 115.842 329.876Z" fill="#FF3975"/>
<path opacity="0.5" d="M115.842 329.876C133.925 329.876 148.583 326.919 148.583 323.271C148.583 319.623 133.925 316.665 115.842 316.665C97.7596 316.665 83.1008 319.623 83.1008 323.271C83.1008 326.919 97.7596 329.876 115.842 329.876Z" fill="white"/>
<path d="M99.9231 306.116L116.595 299.178C115.43 297.269 114.266 298.172 112.777 295.083C111.985 293.499 112.682 290.949 111.684 288.906C110.892 287.235 108.429 286.173 107.479 284.257C106.615 282.53 107.241 279.956 106.307 278.095C105.372 276.234 102.972 275.315 102.038 273.501C101.103 271.688 101.713 269.137 100.77 267.355C99.828 265.573 97.3649 264.591 96.4224 262.833C95.4799 261.075 95.9789 258.438 95.0126 256.719C94.0464 255 91.5041 254.002 90.5299 252.347C89.437 250.494 89.8409 247.872 88.8351 246.296C87.6075 244.38 85.0493 243.683 84.0118 242.336C82.0635 239.802 81.018 237.014 80.0518 237.204C79.0855 237.394 79.9251 240.198 80.4557 243.54C80.725 245.203 79.4736 247.5 80.028 249.726C80.4715 251.515 82.6575 253.004 83.2594 255.048C83.79 256.877 82.7287 259.293 83.3544 261.265C83.9801 263.237 86.1819 264.496 86.8234 266.421C87.4649 268.345 86.4591 270.745 87.1085 272.638C87.7579 274.531 90.0389 275.854 90.6962 277.715C91.3536 279.576 90.427 282.087 91.0922 283.924C91.7575 285.762 94.0939 287.155 94.7513 288.953C95.4879 290.941 94.5771 293.412 95.2265 295.147C96.0185 297.253 98.339 298.537 98.9489 300.128C100.272 303.605 98.4103 303.542 99.5033 306.33L99.9231 306.116Z" fill="#2E353A"/>
<path d="M81.9685 242.819L106.758 302.37" stroke="white" stroke-width="0.360849" stroke-miterlimit="10"/>
<path d="M87.1718 247.983L85.4294 251.452L81.9763 249.417" stroke="white" stroke-width="0.360849" stroke-miterlimit="10"/>
<path d="M91.4803 258.343L89.7458 261.819L86.2927 259.784" stroke="white" stroke-width="0.360849" stroke-miterlimit="10"/>
<path d="M95.5432 268.092L93.8087 271.569L90.3477 269.533" stroke="white" stroke-width="0.360849" stroke-miterlimit="10"/>
<path d="M100.374 279.687L98.6321 283.164L95.179 281.128" stroke="white" stroke-width="0.360849" stroke-miterlimit="10"/>
<path d="M105.253 291.408L103.519 294.885L100.066 292.85" stroke="white" stroke-width="0.360849" stroke-miterlimit="10"/>
<path d="M98.0381 301.514L125.235 300.651C124.61 297.341 122.495 297.99 122.067 292.85C121.846 290.252 124.142 286.965 123.826 283.56C123.564 280.756 120.705 277.968 120.388 274.761C120.103 271.87 122.36 268.575 122.036 265.455C121.719 262.508 118.82 259.76 118.48 256.703C118.139 253.646 120.349 250.367 119.984 247.365C119.62 244.364 116.666 241.655 116.27 238.653C115.874 235.652 117.996 232.222 117.553 229.292C117.094 226.187 114.068 223.582 113.593 220.722C113.046 217.554 115.019 214.054 114.44 211.314C113.736 207.948 110.48 205.595 109.768 203.124C108.39 198.515 108.397 194.024 106.932 193.779C105.467 193.533 105.15 197.921 104.129 202.871C103.614 205.358 100.612 207.955 100.216 211.361C99.8914 214.117 102.172 217.38 101.919 220.572C101.689 223.439 98.9093 226.274 98.7509 229.379C98.5846 232.309 101.016 235.454 100.881 238.511C100.747 241.568 98.0618 244.395 97.9668 247.413C97.8718 250.43 100.343 253.503 100.303 256.481C100.264 259.459 97.5866 262.5 97.5391 265.439C97.4916 268.543 100.042 271.593 100.01 274.476C100.01 277.644 97.3807 280.669 97.3728 283.465C97.3728 286.847 99.9389 289.888 99.9468 292.47C99.9468 298.061 97.3649 296.984 97.4124 301.491L98.0381 301.514Z" fill="#2E353A"/>
<path d="M106.584 202.76L109.68 299.891" stroke="white" stroke-width="0.543628" stroke-miterlimit="10"/>
<path d="M111.154 212.811L106.845 216.771L103.067 212.058" stroke="white" stroke-width="0.543628" stroke-miterlimit="10"/>
<path d="M111.692 229.712L107.384 233.68L103.606 228.967" stroke="white" stroke-width="0.543628" stroke-miterlimit="10"/>
<path d="M112.199 245.615L107.891 249.575L104.113 244.863" stroke="white" stroke-width="0.543628" stroke-miterlimit="10"/>
<path d="M112.801 264.528L108.493 268.496L104.723 263.783" stroke="white" stroke-width="0.543628" stroke-miterlimit="10"/>
<path d="M113.411 283.647L109.102 287.615L105.324 282.902" stroke="white" stroke-width="0.543628" stroke-miterlimit="10"/>
<path d="M114.417 240.419C115.811 241.378 119.565 242.003 119.573 242.003C119.58 242.003 119.24 239.406 119.2 239.239C118.709 237.362 116.666 234.028 114.504 233.909C114.143 233.898 113.785 233.963 113.451 234.1C113.118 234.236 112.817 234.442 112.568 234.703C112.319 234.963 112.128 235.274 112.007 235.613C111.886 235.953 111.838 236.314 111.866 236.673C111.93 238.218 113.221 239.596 114.417 240.419Z" fill="#2E353A"/>
<path d="M152.06 248.569C152.06 248.569 153.225 246.193 153.28 246.059C153.906 244.229 154.072 240.317 152.306 239.018C152.011 238.81 151.676 238.667 151.323 238.598C150.969 238.528 150.605 238.534 150.254 238.615C149.903 238.696 149.573 238.849 149.285 239.066C148.997 239.283 148.758 239.558 148.584 239.873C147.792 241.188 148.108 243.041 148.647 244.388C149.32 245.964 152.06 248.569 152.06 248.569Z" fill="#2E353A"/>
<path d="M165.849 237.188C163.774 236.555 160.693 238.962 159.584 240.554C159.489 240.689 158.23 243.009 158.27 243.017H158.317C157.826 243.39 157.311 243.809 156.733 244.261C155.712 245.116 154.555 246.098 153.375 247.247C152.09 248.469 150.876 249.765 149.74 251.127C148.463 252.65 147.323 254.283 146.334 256.006V256.069C146.469 255.452 146.778 253.693 146.786 253.567C146.904 251.634 145.994 247.825 143.982 247.033C143.642 246.909 143.28 246.858 142.919 246.884C142.558 246.91 142.207 247.012 141.889 247.184C141.57 247.355 141.291 247.592 141.071 247.878C140.85 248.165 140.692 248.495 140.608 248.846C140.196 250.32 140.996 252.014 141.867 253.179C142.857 254.478 145.97 256.157 146.223 256.291C145.26 258.081 144.416 259.934 143.697 261.835C143.277 262.936 142.905 264.053 142.501 265.185C142.596 264.647 142.683 264.156 142.683 264.092C142.802 262.16 141.891 258.35 139.887 257.558C139.549 257.436 139.188 257.386 138.828 257.412C138.469 257.438 138.119 257.54 137.801 257.71C137.484 257.881 137.206 258.116 136.985 258.401C136.765 258.686 136.607 259.014 136.521 259.364C136.102 260.837 136.902 262.532 137.773 263.696C138.644 264.861 141.289 266.35 141.994 266.73L141.566 268.037C140.893 270.12 140.236 272.21 139.531 274.238C139.278 274.951 139.008 275.648 138.739 276.337C138.818 275.862 138.889 275.45 138.897 275.394C139.016 273.454 138.105 269.652 136.094 268.86C135.755 268.736 135.394 268.686 135.034 268.711C134.674 268.737 134.324 268.838 134.006 269.009C133.688 269.179 133.41 269.415 133.19 269.701C132.969 269.986 132.812 270.315 132.728 270.666C132.316 272.139 133.108 273.834 133.987 274.998C134.866 276.163 137.25 277.509 138.074 277.968C137.781 278.665 137.48 279.378 137.163 280.043C136.933 280.495 136.743 280.946 136.49 281.39C136.236 281.833 136.007 282.269 135.769 282.697C135.278 283.489 134.771 284.36 134.272 285.152C133.932 285.698 133.599 286.213 133.258 286.736C133.512 286.023 133.987 284.629 134.05 284.51C134.349 282.833 134.212 281.107 133.654 279.497C133.7 279.31 133.727 279.119 133.734 278.927C133.757 278.567 133.705 278.207 133.58 277.869C133.455 277.531 133.26 277.223 133.009 276.965C132.757 276.707 132.454 276.505 132.119 276.373C131.784 276.24 131.424 276.179 131.064 276.194C128.902 276.345 126.891 279.703 126.431 281.58C126.431 281.691 126.241 282.926 126.146 283.71C126.146 283.243 126.146 282.792 126.099 282.308C126.099 281.358 125.988 280.408 125.924 279.386C125.869 278.895 125.821 278.396 125.766 277.897C125.711 277.398 125.623 276.875 125.552 276.361C125.362 275.165 125.109 273.985 124.824 272.765C125.663 272.765 128.617 272.559 129.916 271.909C131.215 271.26 132.68 270.08 132.965 268.575C133.043 268.223 133.046 267.859 132.974 267.506C132.901 267.153 132.755 266.819 132.545 266.526C132.335 266.233 132.066 265.988 131.755 265.806C131.444 265.624 131.098 265.51 130.74 265.471C128.578 265.288 126.091 268.306 125.346 270.088C125.299 270.207 124.911 271.545 124.705 272.29C124.53 271.569 124.364 270.848 124.166 270.12C123.588 268.037 122.939 265.938 122.297 263.839L121.727 261.914C122.02 261.914 125.544 261.78 127.002 261.051C128.292 260.41 129.766 259.222 130.043 257.717C130.122 257.365 130.126 257.001 130.055 256.648C129.983 256.295 129.838 255.961 129.629 255.668C129.419 255.375 129.151 255.13 128.84 254.948C128.529 254.766 128.183 254.651 127.825 254.612C125.663 254.43 123.168 257.448 122.424 259.237C122.368 259.372 121.806 261.305 121.687 261.804C121.275 260.386 120.895 258.976 120.531 257.566C120.058 255.667 119.712 253.738 119.493 251.793C119.628 251.793 123.303 251.674 124.8 250.929C126.091 250.288 127.564 249.1 127.841 247.595C127.92 247.244 127.924 246.88 127.853 246.527C127.781 246.174 127.636 245.84 127.427 245.547C127.218 245.253 126.949 245.008 126.638 244.826C126.327 244.644 125.981 244.53 125.623 244.49C123.461 244.308 120.966 247.326 120.222 249.108C120.174 249.227 119.747 250.692 119.557 251.405H119.438C119.263 249.442 119.263 247.467 119.438 245.504C119.525 244.427 119.668 243.397 119.826 242.4C120.515 242.447 123.659 242.637 125.077 242.114C126.495 241.592 128.023 240.602 128.467 239.137C128.583 238.795 128.627 238.433 128.594 238.074C128.561 237.715 128.453 237.366 128.277 237.052C128.101 236.737 127.86 236.463 127.57 236.248C127.281 236.033 126.95 235.881 126.598 235.802C124.467 235.382 121.663 238.107 120.729 239.802C120.673 239.897 120.262 240.887 119.937 241.615C120.016 241.172 120.087 240.705 120.174 240.277C120.491 238.693 120.879 237.212 121.236 235.929C121.442 235.2 121.64 234.543 121.838 233.933C122.535 233.624 125.338 232.349 126.336 231.272C127.334 230.195 128.253 228.571 127.976 227.059C127.921 226.705 127.792 226.368 127.599 226.067C127.406 225.767 127.152 225.51 126.854 225.313C126.556 225.116 126.22 224.984 125.867 224.924C125.515 224.865 125.154 224.88 124.808 224.968C122.733 225.577 121.497 229.284 121.442 231.224C121.442 231.391 121.671 234.012 121.711 233.996C121.513 234.583 121.299 235.208 121.093 235.905C120.705 237.18 120.301 238.63 119.937 240.245C119.538 241.974 119.241 243.725 119.05 245.488C118.819 247.462 118.769 249.453 118.899 251.436C118.896 251.46 118.896 251.484 118.899 251.508C118.662 250.921 117.957 249.29 117.886 249.171C116.927 247.492 114.068 244.807 111.954 245.259C111.603 245.344 111.275 245.502 110.99 245.723C110.705 245.943 110.469 246.221 110.298 246.538C110.127 246.856 110.025 247.205 109.997 247.565C109.97 247.924 110.019 248.285 110.14 248.625C110.607 250.082 112.215 251.072 113.577 251.547C115.122 252.086 118.646 251.769 118.923 251.737C119.101 253.755 119.416 255.758 119.866 257.733C120.111 258.881 120.404 260.037 120.713 261.186C120.491 260.679 120.293 260.235 120.262 260.172C119.295 258.493 116.444 255.816 114.322 256.267C113.971 256.352 113.642 256.509 113.356 256.729C113.07 256.95 112.834 257.228 112.663 257.545C112.491 257.863 112.389 258.213 112.363 258.573C112.336 258.933 112.385 259.294 112.508 259.633C112.975 261.091 114.583 262.073 115.953 262.556C117.323 263.039 120.349 262.825 121.141 262.762C121.267 263.197 121.378 263.641 121.505 264.077C122.099 266.191 122.701 268.298 123.224 270.373C123.414 271.11 123.564 271.838 123.723 272.567C123.533 272.123 123.366 271.775 123.335 271.688C122.368 270.009 119.517 267.332 117.395 267.783C117.044 267.869 116.716 268.027 116.431 268.247C116.146 268.468 115.91 268.745 115.739 269.063C115.568 269.38 115.466 269.73 115.438 270.089C115.411 270.449 115.46 270.81 115.581 271.149C116.048 272.606 117.656 273.596 119.026 274.072C120.396 274.547 123.129 274.365 124.071 274.285C124.214 275.038 124.356 275.79 124.451 276.527C124.515 277.026 124.602 277.509 124.633 278.016C124.665 278.523 124.713 279.014 124.752 279.513C124.8 280.463 124.847 281.445 124.863 282.372C124.863 283.021 124.863 283.639 124.863 284.257C124.689 283.528 124.317 282.103 124.269 281.984C123.572 280.178 121.157 277.097 118.994 277.232C118.635 277.263 118.287 277.369 117.972 277.544C117.657 277.718 117.381 277.957 117.164 278.244C116.947 278.531 116.792 278.861 116.711 279.212C116.629 279.563 116.622 279.927 116.69 280.281C116.935 281.794 118.369 283.013 119.652 283.694C121.054 284.439 124.451 284.669 124.871 284.692C124.871 285.722 124.871 286.72 124.871 287.662C124.824 290.624 124.681 293.127 124.546 294.98L125.98 295.266C126.075 293.365 126.17 290.759 126.162 287.67C126.162 286.625 126.162 285.516 126.099 284.368C127.17 284.168 128.228 283.904 129.267 283.576C130.13 284.97 132.656 286.894 132.981 287.14C132.419 288.003 131.864 288.835 131.334 289.611C129.671 292.026 128.166 294.014 127.049 295.487L128.633 295.788C129.686 294.347 131.009 292.501 132.411 290.323C132.989 289.452 133.583 288.51 134.185 287.536C134.573 287.694 137.717 289.001 139.309 288.953C140.759 288.906 142.588 288.446 143.475 287.195C143.693 286.909 143.847 286.58 143.93 286.23C144.012 285.88 144.02 285.517 143.952 285.163C143.885 284.81 143.745 284.475 143.54 284.18C143.335 283.884 143.07 283.635 142.762 283.449C140.869 282.38 137.345 284.075 135.919 285.381C135.832 285.461 135.017 286.403 134.51 286.965C134.755 286.561 134.993 286.173 135.238 285.762C135.737 284.97 136.205 284.122 136.711 283.235L137.4 281.905C137.646 281.469 137.844 280.97 138.066 280.503C138.565 279.402 139.016 278.261 139.444 277.105C140.165 277.541 142.723 279.03 144.196 279.204C145.669 279.378 147.514 279.204 148.576 278.103C148.835 277.853 149.039 277.551 149.174 277.217C149.309 276.883 149.373 276.524 149.36 276.164C149.347 275.804 149.259 275.451 149.101 275.127C148.942 274.803 148.717 274.517 148.441 274.285C146.738 272.939 142.992 274.08 141.384 275.165C141.289 275.228 140.22 276.131 139.642 276.638C139.895 275.941 140.149 275.252 140.386 274.531C141.052 272.472 141.669 270.365 142.295 268.266C142.485 267.625 142.683 266.983 142.881 266.35C143.135 266.5 146.136 268.338 147.752 268.536C149.193 268.71 151.07 268.536 152.132 267.435C152.391 267.185 152.595 266.883 152.73 266.549C152.866 266.215 152.929 265.856 152.916 265.496C152.903 265.136 152.815 264.782 152.657 264.459C152.498 264.135 152.274 263.848 151.997 263.617C150.294 262.271 146.548 263.411 144.94 264.496C144.822 264.576 143.285 265.882 142.913 266.231C143.34 264.821 143.784 263.419 144.283 262.057C144.936 260.214 145.709 258.415 146.596 256.671C146.714 256.743 149.843 258.675 151.498 258.873C152.94 259.055 154.817 258.873 155.878 257.772C156.137 257.522 156.341 257.221 156.477 256.886C156.612 256.552 156.675 256.194 156.662 255.834C156.65 255.473 156.561 255.12 156.403 254.796C156.244 254.473 156.02 254.186 155.743 253.955C154.04 252.616 150.294 253.757 148.686 254.834C148.584 254.905 147.411 255.895 146.865 256.418L146.77 256.339C147.713 254.608 148.807 252.965 150.041 251.428C150.706 250.581 151.395 249.797 152.076 249.052C152.623 249.464 155.141 251.357 156.614 251.706C158.088 252.054 159.909 252.062 161.089 251.088C161.374 250.867 161.609 250.589 161.78 250.272C161.95 249.954 162.052 249.604 162.078 249.245C162.104 248.886 162.054 248.525 161.932 248.186C161.809 247.847 161.616 247.538 161.366 247.278C159.822 245.758 155.981 246.486 154.238 247.373C154.143 247.429 153.248 248.023 152.607 248.474C152.916 248.142 153.233 247.793 153.541 247.484C154.698 246.32 155.822 245.314 156.828 244.443C157.398 243.944 157.929 243.508 158.412 243.112C159.165 243.239 162.198 243.73 163.632 243.374C165.065 243.017 166.728 242.178 167.322 240.768C167.485 240.44 167.576 240.08 167.589 239.714C167.602 239.348 167.536 238.983 167.397 238.644C167.257 238.305 167.047 238 166.78 237.749C166.513 237.498 166.196 237.307 165.849 237.188Z" fill="#2E353A"/>
<path d="M146.255 294.656H87.3064V302.457H146.255V294.656Z" fill="#2E353A"/>
<path d="M136.989 324.886H96.5649L91.512 301.594H142.042L136.989 324.886Z" fill="#2E353A"/>
<path d="M87.8055 176.616L87.2115 232.801C87.2115 232.801 84.8355 233.997 78.2461 233.997C71.6566 233.997 69.2806 232.801 69.2806 232.801L71.6566 210.086C71.6566 210.086 63.301 208.296 63.301 205.92C63.301 203.544 81.8259 137.808 81.8259 137.808C81.8259 137.808 91.3933 154.496 87.8055 176.616Z" fill="#FF3975" stroke="#2E353A" stroke-miterlimit="10"/>
<path d="M71.6646 210.078L79.4103 174.28" stroke="#2E353A" stroke-miterlimit="10"/>
<path d="M74.6582 137.76C74.6582 137.76 85.4136 152.104 86.6095 158.083C87.8054 164.063 87.8054 176.616 87.8054 176.616C91.3128 167.818 93.527 158.559 94.379 149.126C95.5749 134.181 83.6236 126.411 83.6236 126.411L74.6582 137.76Z" fill="#2E353A" stroke="#2E353A" stroke-miterlimit="10"/>
<path d="M276.769 176.616L277.363 232.801C277.363 232.801 279.739 233.997 286.328 233.997C292.918 233.997 295.294 232.801 295.294 232.801L292.918 210.086C292.918 210.086 301.273 208.296 301.273 205.92C301.273 203.544 282.74 137.808 282.74 137.808C282.74 137.808 273.181 154.496 276.769 176.616Z" fill="#FF3975" stroke="#2E353A" stroke-miterlimit="10"/>
<path d="M292.902 210.078L285.718 168.45" stroke="#2E353A" stroke-miterlimit="10"/>
<path d="M289.916 137.76C289.916 137.76 279.153 152.103 277.957 158.083C276.761 164.063 276.769 176.608 276.769 176.608C273.256 167.811 271.039 158.551 270.187 149.118C268.991 134.173 280.95 126.403 280.95 126.403L289.916 137.76Z" fill="#2E353A" stroke="#2E353A" stroke-miterlimit="10"/>
<path d="M289.829 137.76C257.25 118.493 220.094 108.328 182.243 108.328C144.393 108.328 107.237 118.493 74.6582 137.76L55.7928 105.859C54.4385 103.594 55.7136 100.315 58.6836 98.6832C96.4417 77.5753 138.978 66.4929 182.236 66.4929C225.493 66.4929 268.029 77.5753 305.788 98.6832C308.75 100.338 310.033 103.594 308.678 105.859L289.829 137.76Z" fill="#FF3975"/>
<path d="M289.829 137.76C257.25 118.493 220.094 108.328 182.243 108.328C144.393 108.328 107.237 118.493 74.6582 137.76L55.7928 105.859C54.4385 103.594 55.7136 100.315 58.6836 98.6832C96.4417 77.5753 138.978 66.4929 182.236 66.4929C225.493 66.4929 268.029 77.5753 305.788 98.6832C308.75 100.338 310.033 103.594 308.678 105.859L289.829 137.76Z" stroke="#2E353A" stroke-miterlimit="10"/>
<path d="M104.242 117C103.562 117.225 102.953 117.244 102.417 117.058C101.906 116.864 101.407 116.455 100.923 115.833L85.6499 96.101C85.1066 95.3862 84.9324 94.6892 85.1275 94.01C85.3477 93.3226 85.924 92.825 86.8563 92.5173C87.5367 92.2927 88.1199 92.2819 88.606 92.4847C89.0838 92.6623 89.5484 93.0539 89.9997 93.6594L103.465 111.598L101.953 112.097L102.41 89.6054C102.438 88.8418 102.586 88.2339 102.856 87.7816C103.126 87.3292 103.563 87.0033 104.168 86.8037C104.773 86.6041 105.306 86.6098 105.767 86.821C106.227 87.0321 106.7 87.4489 107.185 88.0713L120.701 105.91L119.378 106.346L119.634 83.8789C119.644 83.1489 119.785 82.5577 120.054 82.1054C120.324 81.653 120.787 81.3187 121.442 81.1025C122.248 80.8364 122.932 80.9181 123.493 81.3477C124.054 81.7774 124.329 82.4411 124.318 83.339L123.728 108.348C123.7 109.111 123.539 109.724 123.244 110.184C122.949 110.645 122.461 110.987 121.781 111.212C121.1 111.437 120.504 111.452 119.993 111.257C119.482 111.063 118.984 110.654 118.499 110.032L105.734 93.4543L106.604 93.1674L106.151 114.149C106.124 114.912 105.963 115.525 105.668 115.985C105.398 116.437 104.923 116.776 104.242 117Z" fill="#2E353A"/>
<path d="M131.808 108.419C130.952 108.61 130.241 108.537 129.675 108.2C129.129 107.832 128.761 107.219 128.569 106.363L123.617 84.2102C123.426 83.3537 123.501 82.6555 123.844 82.1156C124.207 81.544 124.817 81.1624 125.673 80.971L139.572 77.8642C140.221 77.7192 140.752 77.7777 141.165 78.0397C141.603 78.2959 141.892 78.7354 142.032 79.3583C142.177 80.0072 142.108 80.5539 141.826 80.9985C141.564 81.4114 141.109 81.6903 140.46 81.8354L128.702 84.4635L130.39 92.0164L141.291 89.5797C141.966 89.4289 142.51 89.4845 142.923 89.7465C143.336 90.0085 143.615 90.4639 143.76 91.1128C143.905 91.7617 143.846 92.2925 143.584 92.7054C143.322 93.1182 142.854 93.4 142.179 93.5509L131.278 95.9876L133.062 103.969L144.82 101.341C145.468 101.196 145.999 101.254 146.412 101.516C146.851 101.772 147.143 102.225 147.288 102.874C147.433 103.523 147.361 104.056 147.073 104.475C146.812 104.888 146.356 105.167 145.707 105.312L131.808 108.419Z" fill="#2E353A"/>
<path d="M151.564 104.557C150.751 104.672 150.09 104.537 149.581 104.153C149.069 103.744 148.756 103.132 148.642 102.319L145.456 79.6087C145.338 78.769 145.459 78.1098 145.82 77.6311C146.204 77.1224 146.802 76.8111 147.616 76.6969C148.429 76.5828 149.077 76.7194 149.559 77.1065C150.064 77.4638 150.376 78.0622 150.494 78.9019L153.442 99.9194L164.856 98.3181C165.565 98.2188 166.128 98.327 166.547 98.6428C166.992 98.9549 167.263 99.4521 167.358 100.134C167.454 100.817 167.333 101.382 166.994 101.831C166.679 102.25 166.166 102.509 165.458 102.608L151.564 104.557Z" fill="#2E353A"/>
<path d="M180.982 102.103C178.065 102.233 175.534 101.762 173.388 100.689C171.267 99.5884 169.602 97.9893 168.393 95.8917C167.182 93.7676 166.511 91.2342 166.38 88.2917C166.282 86.0914 166.512 84.1022 167.07 82.3242C167.627 80.5197 168.474 78.9678 169.611 77.6686C170.748 76.3429 172.162 75.3102 173.856 74.5706C175.575 73.8033 177.521 73.3711 179.695 73.2741C181.153 73.209 182.593 73.3307 184.014 73.6392C185.436 73.9476 186.692 74.4228 187.783 75.0647C188.356 75.3845 188.746 75.7921 188.954 76.2875C189.161 76.7564 189.222 77.2318 189.137 77.7137C189.051 78.1691 188.843 78.5635 188.512 78.897C188.208 79.2293 187.806 79.4332 187.304 79.5087C186.828 79.5565 186.291 79.4079 185.691 79.0628C184.845 78.5693 183.94 78.2245 182.975 78.0285C182.01 77.8325 181.037 77.7564 180.056 77.8002C178.174 77.8841 176.601 78.3395 175.336 79.1663C174.071 79.993 173.14 81.1502 172.543 82.6378C171.945 84.1254 171.693 85.9296 171.788 88.0503C171.882 90.1446 172.293 91.9192 173.022 93.3742C173.751 94.8291 174.782 95.912 176.115 96.6228C177.448 97.3336 179.056 97.647 180.938 97.563C181.946 97.5181 182.934 97.3544 183.905 97.0721C184.874 96.7632 185.784 96.3242 186.635 95.7549C187.203 95.3843 187.713 95.2154 188.166 95.2483C188.645 95.2535 189.049 95.3949 189.38 95.6723C189.712 95.9497 189.94 96.3113 190.066 96.7573C190.191 97.1767 190.185 97.6285 190.047 98.1128C189.908 98.5706 189.608 98.9824 189.146 99.3483C188.12 100.164 186.874 100.818 185.409 101.308C183.968 101.771 182.493 102.036 180.982 102.103Z" fill="#2E353A"/>
<path d="M202.848 102.74C200.139 102.52 197.811 101.73 195.863 100.369C193.941 99.0101 192.51 97.2099 191.569 94.9684C190.631 92.7004 190.28 90.1057 190.517 87.1846C190.696 84.9804 191.175 83.0279 191.954 81.3269C192.736 79.5993 193.762 78.1589 195.031 77.0055C196.33 75.8278 197.829 74.9737 199.53 74.4434C201.259 73.8887 203.145 73.6942 205.19 73.8601C207.926 74.082 210.254 74.8723 212.175 76.231C214.099 77.5632 215.531 79.3501 216.472 81.5916C217.413 83.8331 217.764 86.4144 217.527 89.3356C217.349 91.5397 216.868 93.5056 216.087 95.2331C215.305 96.9607 214.265 98.4133 212.967 99.5911C211.695 100.771 210.194 101.638 208.465 102.193C206.765 102.723 204.892 102.906 202.848 102.74ZM203.203 98.358C204.929 98.498 206.422 98.2182 207.682 97.5184C208.968 96.8208 209.991 95.741 210.751 94.279C211.538 92.8192 212.016 91.0403 212.187 88.9424C212.445 85.7557 211.928 83.2278 210.636 81.3588C209.371 79.4919 207.437 78.4529 204.835 78.2418C203.135 78.104 201.642 78.3838 200.356 79.0814C199.072 79.7524 198.037 80.8179 197.25 82.2777C196.492 83.7131 196.027 85.4931 195.855 87.6176C195.598 90.7777 196.115 93.3056 197.405 95.2012C198.694 97.0968 200.627 98.149 203.203 98.358Z" fill="#2E353A"/>
<path d="M218.51 104.657C217.786 104.489 217.279 104.153 216.987 103.65C216.695 103.146 216.634 102.532 216.802 101.809L222.213 78.5065C222.388 77.7569 222.726 77.2363 223.23 76.9446C223.74 76.6271 224.356 76.5524 225.08 76.7205C225.726 76.8706 226.2 77.1169 226.502 77.4594C226.836 77.7821 227.089 78.2767 227.261 78.9432L232.722 98.8862L231.482 98.598L245.174 83.1033C245.622 82.5809 246.054 82.2453 246.47 82.0968C246.892 81.9223 247.426 81.9101 248.072 82.0602C248.796 82.2283 249.303 82.5641 249.595 83.0678C249.893 83.5455 249.954 84.1592 249.78 84.9088L244.369 108.211C244.201 108.935 243.875 109.458 243.391 109.782C242.933 110.111 242.329 110.189 241.58 110.015C240.856 109.847 240.348 109.511 240.056 109.007C239.765 108.504 239.703 107.89 239.871 107.166L244.04 89.2148L244.893 89.4129L233.302 102.372C232.942 102.751 232.595 103.011 232.263 103.152C231.931 103.293 231.519 103.306 231.028 103.192C230.537 103.078 230.16 102.881 229.898 102.603C229.642 102.298 229.445 101.912 229.309 101.444L224.547 84.6467L225.477 84.8628L221.299 102.853C221.131 103.577 220.805 104.1 220.321 104.424C219.864 104.753 219.26 104.831 218.51 104.657Z" fill="#2E353A"/>
<path d="M250.303 112.805C249.484 112.496 248.93 112.046 248.642 111.456C248.389 110.85 248.416 110.137 248.725 109.317L256.714 88.1248C257.023 87.3054 257.468 86.7642 258.049 86.5012C258.665 86.2227 259.382 86.2379 260.202 86.5468L273.498 91.5592C274.119 91.7932 274.53 92.1325 274.731 92.5769C274.957 93.0308 274.958 93.5557 274.733 94.1516C274.499 94.7723 274.143 95.191 273.664 95.4076C273.219 95.6087 272.687 95.5923 272.066 95.3583L260.818 91.1181L258.094 98.3437L268.523 102.275C269.168 102.518 269.592 102.862 269.793 103.307C269.994 103.751 269.978 104.284 269.744 104.905C269.51 105.525 269.17 105.936 268.726 106.137C268.281 106.339 267.736 106.317 267.091 106.074L256.662 102.143L253.784 109.778L265.032 114.018C265.653 114.252 266.064 114.591 266.265 115.036C266.491 115.49 266.487 116.027 266.253 116.648C266.019 117.269 265.667 117.675 265.198 117.867C264.753 118.068 264.221 118.051 263.6 117.817L250.303 112.805Z" fill="#2E353A"/>
<path d="M250.838 174.715C250.838 174.715 240.764 167.271 235.925 163.627C231.086 159.984 222.794 149.53 220.719 144.936C219.692 142.571 218.539 140.263 217.266 138.022C217.266 138.022 218.224 133.405 218.224 132.264C218.224 131.124 217.297 129.619 216.711 128.653C216.418 128.169 214.335 125.405 214.335 127.512C214.335 129.159 215.325 129.983 215.325 130.973C213.992 130.237 212.894 129.138 212.157 127.805C211.001 125.667 210.51 124.835 209.845 125.334C208.664 126.221 210.177 128.502 210.177 128.502C210.177 128.502 209.845 125.334 208.197 125.857C207.247 126.142 208.53 128.827 209.187 129.983C209.845 131.139 208.855 129.191 209.021 131.139C209.14 132.589 210.795 136.153 212.323 137.903C212.878 138.545 214.169 138.347 214.303 138.568C214.795 139.36 220.077 151.605 223.705 157.711C227.332 163.817 229.486 165.631 232.456 168.601C235.426 171.571 239.386 176.687 242.847 179.158C246.308 181.629 248.13 180.647 250.11 178.992C252.09 177.337 252.383 176.394 250.838 174.715Z" fill="white" stroke="#2E353A" stroke-linecap="round" stroke-linejoin="round"/>
<path d="M215.27 130.965C215.27 130.965 213.781 133.777 214.478 134.925" stroke="#2E353A" stroke-linecap="round" stroke-linejoin="round"/>
<path d="M210.153 128.494L211.476 130.965" stroke="#2E353A" stroke-linecap="round" stroke-linejoin="round"/>
<path d="M211.635 136.58C210.498 135.138 209.503 133.589 208.665 131.955C208.007 130.308 208.506 126.68 209.496 127.338C210.486 127.995 210.153 131.63 210.153 131.63L212.133 133.935" fill="white"/>
<path d="M211.635 136.58C210.498 135.138 209.503 133.589 208.665 131.955C208.007 130.308 208.506 126.68 209.496 127.338C210.486 127.995 210.153 131.63 210.153 131.63L212.133 133.935" stroke="#2E353A" stroke-linecap="round" stroke-linejoin="round"/>
<path d="M252.969 154.139C252.969 154.139 247.908 152.294 248.827 145.847C249.746 139.4 255.274 142.623 255.274 142.623C255.274 142.623 249.73 135.25 261.032 133.642C272.333 132.034 280.618 142.164 283.382 153.442C286.146 164.72 268.635 165.877 271.169 174.406C273.704 182.936 283.611 192.622 281.996 204.352C280.38 216.081 264.263 222.568 256.889 216.327C249.516 210.086 246.522 200.439 250.696 191.664C254.87 182.889 257.143 172.545 258.291 167.904C259.44 163.263 252.969 154.139 252.969 154.139Z" fill="#2E353A" stroke="#2E353A" stroke-linecap="round" stroke-linejoin="round"/>
<path d="M271.09 162.756C264.16 159.984 260.596 148.698 260.596 142.362C260.596 136.026 269.506 139.194 269.506 139.194C269.506 139.194 260.794 140.778 265.15 149.292C269.506 157.806 277.228 160.38 281.188 157.806" stroke="white" stroke-width="0.75" stroke-linecap="round" stroke-linejoin="round"/>
<path d="M269.704 168.894C269.704 168.894 263.566 170.874 265.348 178.596C267.13 186.318 280.792 196.02 276.832 205.92C272.872 215.82 265.942 219.78 257.626 216.81" stroke="white" stroke-width="0.75" stroke-linecap="round" stroke-linejoin="round"/>
<path d="M266.734 170.478C266.734 170.478 260.002 173.25 259.21 183.15C258.418 193.05 266.536 201.564 262.774 206.514C259.012 211.464 252.874 210.87 250.894 207.9" stroke="white" stroke-width="0.75" stroke-linecap="round" stroke-linejoin="round"/>
<path d="M251.361 164.966C251.361 164.966 252.05 167.5 249.777 171.421C247.504 175.341 246.324 176.252 246.324 176.252L254.616 175.563L259.915 165.885C259.915 165.885 251.82 166.582 251.361 164.966Z" fill="white" stroke="#2E353A" stroke-linecap="round" stroke-linejoin="round"/>
<path d="M259.653 143.542C259.653 143.542 251.591 150.916 249.975 157.363C248.359 163.81 250.434 167.96 253.436 167.96C256.438 167.96 262.647 165.425 262.647 165.425C262.647 165.425 264.492 167.009 266.33 166.122C266.856 165.868 267.304 165.477 267.629 164.991C267.953 164.505 268.142 163.941 268.175 163.358C268.175 163.358 255.503 150.916 259.653 143.542Z" fill="white" stroke="#2E353A" stroke-linecap="round" stroke-linejoin="round"/>
<path d="M256.24 154.606C255.686 155.311 255.02 155.707 254.743 155.493C254.466 155.28 254.688 154.535 255.242 153.83C255.796 153.125 256.462 152.729 256.731 152.943C257 153.157 256.786 153.902 256.24 154.606Z" fill="#2E353A"/>
<path d="M260.073 158.622C259.527 159.335 258.854 159.731 258.576 159.517C258.299 159.303 258.529 158.558 259.075 157.854C259.622 157.149 260.295 156.745 260.572 156.959C260.849 157.172 260.62 157.917 260.073 158.622Z" fill="#2E353A"/>
<path d="M255.876 156.111C254.935 156.443 254.031 156.867 253.175 157.379C252.454 157.917 253.713 158.638 253.713 158.638" stroke="#2E353A" stroke-width="0.75" stroke-linecap="round" stroke-linejoin="round"/>
<path d="M251.551 160.436C251.681 161.021 251.997 161.549 252.453 161.939C252.909 162.329 253.479 162.56 254.078 162.598C255.21 162.767 256.364 162.51 257.317 161.877" stroke="#2E353A" stroke-width="0.75" stroke-linecap="round" stroke-linejoin="round"/>
<path d="M256.058 149.989C256.63 149.899 257.215 150.039 257.687 150.376C258.158 150.714 258.477 151.223 258.576 151.795" stroke="#2E353A" stroke-width="0.75" stroke-linecap="round" stroke-linejoin="round"/>
<path d="M260.2 154.496C260.2 154.496 263.257 155.573 262.362 157.917" stroke="#2E353A" stroke-width="0.75" stroke-linecap="round" stroke-linejoin="round"/>
<path d="M229.977 322.495C229.977 322.495 225.716 325.338 224.291 326.043C222.865 326.748 216.838 327.817 216.656 329.417C216.473 331.017 219.673 331.904 223.229 331.904C226.785 331.904 231.038 331.904 233.169 332.26C235.299 332.616 236.725 333.321 237.612 331.017C238.499 328.712 237.073 322.669 237.073 322.669C237.073 322.669 233.351 324.094 229.977 322.495Z" fill="#FF3975" stroke="#2E353A" stroke-linecap="round" stroke-linejoin="round"/>
<path d="M231.569 259.285C231.569 259.285 229.09 270.825 229.09 274.555C229.09 278.285 230.508 302.433 230.864 309.173C231.037 313.632 230.739 318.098 229.977 322.495C229.977 322.495 232.995 323.912 234.238 323.912C235.482 323.912 237.073 322.669 237.073 322.669C237.073 322.669 240.63 307.043 240.63 298.703C240.63 290.363 241.334 285.564 240.63 280.233C239.925 274.903 237.462 265.146 238.317 261.59C239.172 258.034 234.238 253.955 231.569 259.285Z" fill="#2E353A" stroke="#2E353A" stroke-linecap="round" stroke-linejoin="round"/>
<path d="M231.545 208.296C231.545 208.296 228.52 228.777 228.52 243.976C228.52 259.174 234.975 277.382 236.582 279.917C238.19 282.451 252.248 307.787 255.472 313.086C257.752 317.103 259.641 321.331 261.111 325.71C262.235 326.056 263.392 326.287 264.564 326.399C265.72 326.399 267.328 325.021 267.328 325.021C267.328 325.021 259.851 295.804 256.858 288.209C253.864 280.614 247.67 274.618 246.063 271.656C244.455 268.694 243.758 257.139 243.758 257.139C243.758 257.139 253.198 242.17 254.846 234.107C256.493 226.045 252.05 217.008 250.205 213.84C248.999 211.681 247.922 209.451 246.981 207.164C246.981 207.164 237.311 212.882 231.545 208.296Z" fill="#2E353A" stroke="#2E353A" stroke-linecap="round" stroke-linejoin="round"/>
<path d="M249.056 199.98C249.056 199.98 254.814 182.247 256.184 178.097C257.555 173.947 255.487 172.339 249.27 173.028C243.053 173.717 232.226 178.572 231.767 183.855C231.308 189.138 233.351 192.147 233.351 194.682C233.351 197.216 229.708 208.296 232.48 210.577C235.252 212.858 243.996 212.161 246.53 208.993C249.064 205.825 249.056 199.98 249.056 199.98Z" fill="#FF3975" stroke="#2E353A" stroke-linecap="round" stroke-linejoin="round"/>
<path d="M250.838 174.715C251.172 177.613 250.459 180.535 248.827 182.952C246.063 187.324 239.846 185.716 240.305 180.877C240.764 176.038 246.625 172.023 250.838 174.715Z" fill="white" stroke="#2E353A" stroke-linecap="round" stroke-linejoin="round"/>
<path d="M246.91 181.574C247.659 181.454 248.373 181.169 248.998 180.739C249.623 180.309 250.144 179.745 250.523 179.088C250.903 178.43 251.131 177.697 251.191 176.941C251.251 176.184 251.141 175.424 250.87 174.715C250.699 174.227 250.401 173.792 250.007 173.455C249.614 173.119 249.138 172.892 248.629 172.799C244.669 172.11 227.435 173.488 223.055 173.028C218.675 172.569 202.099 162.431 197.711 158.519C193.323 154.606 191.724 152.531 191.724 150.916C191.724 149.3 190.567 145.617 189.649 144.469C188.73 143.32 187.114 141.008 187.114 141.008C187.114 141.008 185.53 141.008 185.736 141.934C186.111 142.969 186.572 143.97 187.114 144.928C187.114 144.928 182.505 142.164 181.356 140.968C181.241 140.809 181.094 140.675 180.924 140.577C180.754 140.478 180.565 140.415 180.37 140.394C180.174 140.372 179.976 140.392 179.789 140.451C179.602 140.51 179.429 140.608 179.281 140.738L181.816 143.502C181.816 143.502 181.586 145.348 183.4 148.342C184.772 150.386 186.486 152.179 188.468 153.64C188.468 153.64 197.679 164.467 204.594 170.454C211.508 176.442 217.947 180.132 223.712 181.051C228.797 181.907 236.733 183.435 246.91 181.574Z" fill="white" stroke="#2E353A" stroke-linecap="round" stroke-linejoin="round"/>
<path d="M261.142 325.71C261.142 325.71 257.499 329.599 255.012 331.191C252.526 332.783 249.326 333.86 249.864 335.277C250.403 336.695 256.992 336.521 260.16 336.339C263.328 336.157 269.744 333.171 270.813 332.434C271.882 331.698 267.36 325.021 267.36 325.021C267.36 325.021 263.899 326.969 261.142 325.71Z" fill="#FF3975" stroke="#2E353A" stroke-linecap="round" stroke-linejoin="round"/>
<path d="M260.2 336.339C263.368 336.164 269.783 333.171 270.852 332.434C271.145 332.236 271.003 331.571 270.654 330.723C267.048 332.511 263.24 333.862 259.313 334.747C254.117 335.856 251.171 335.333 249.849 334.913C249.844 335.037 249.863 335.16 249.904 335.277C250.395 336.695 256.961 336.521 260.2 336.339Z" fill="#2E353A" stroke="#2E353A" stroke-linecap="round" stroke-linejoin="round"/>
<path d="M237.612 331.056C237.77 330.586 237.858 330.095 237.873 329.599C236.464 330.739 235.442 330.201 233.169 330.343C230.326 330.525 229.264 330.525 223.404 330.525C221.109 330.582 218.825 330.203 216.672 329.409C216.675 329.424 216.675 329.441 216.672 329.456C216.497 331.04 219.689 331.943 223.245 331.943C226.801 331.943 231.054 331.943 233.185 332.299C235.315 332.656 236.725 333.321 237.612 331.056Z" fill="#2E353A" stroke="#2E353A" stroke-linecap="round" stroke-linejoin="round"/>
<path d="M243.758 257.107C243.758 257.107 244.415 246.146 245.627 243.976C246.839 241.806 249.722 238.915 251.646 237.228" stroke="white" stroke-width="0.75" stroke-linecap="round" stroke-linejoin="round"/>
</svg>
