<svg width="16" height="18" viewBox="0 0 16 18" fill="none" xmlns="http://www.w3.org/2000/svg">
<path d="M6 10C5.16667 10 4.45833 9.70833 3.875 9.125C3.29167 8.54167 3 7.83333 3 7C3 6.63333 3.05833 6.2875 3.175 5.9625C3.29167 5.6375 3.46667 5.34167 3.7 5.075C3.63333 4.90833 3.58333 4.73333 3.55 4.55C3.51667 4.36667 3.5 4.18333 3.5 4C3.5 3.36667 3.67083 2.80417 4.0125 2.3125C4.35417 1.82083 4.8 1.45833 5.35 1.225C5.68333 0.841667 6.075 0.541667 6.525 0.325C6.975 0.108333 7.46667 0 8 0C8.53333 0 9.025 0.108333 9.475 0.325C9.925 0.541667 10.3167 0.841667 10.65 1.225C11.2 1.45833 11.6458 1.82083 11.9875 2.3125C12.3292 2.80417 12.5 3.36667 12.5 4C12.5 4.18333 12.4833 4.36667 12.45 4.55C12.4167 4.73333 12.3667 4.90833 12.3 5.075C12.5333 5.34167 12.7083 5.6375 12.825 5.9625C12.9417 6.2875 13 6.63333 13 7C13 7.83333 12.7083 8.54167 12.125 9.125C11.5417 9.70833 10.8333 10 10 10H6ZM6 8H10C10.2833 8 10.5208 7.9 10.7125 7.7C10.9042 7.5 11 7.26667 11 7C11 6.88333 10.9792 6.775 10.9375 6.675C10.8958 6.575 10.8333 6.475 10.75 6.375C10.5667 6.15833 10.4458 5.94583 10.3875 5.7375C10.3292 5.52917 10.3 5.33333 10.3 5.15C10.3 4.88333 10.3333 4.65417 10.4 4.4625C10.4667 4.27083 10.5 4.11667 10.5 4C10.5 3.8 10.4417 3.61667 10.325 3.45C10.2083 3.28333 10.0583 3.15833 9.875 3.075C9.725 3.00833 9.5875 2.93333 9.4625 2.85C9.3375 2.76667 9.225 2.65833 9.125 2.525C9.04167 2.425 8.90417 2.3125 8.7125 2.1875C8.52083 2.0625 8.28333 2 8 2C7.71667 2 7.47917 2.06667 7.2875 2.2C7.09583 2.33333 6.95833 2.45 6.875 2.55C6.775 2.66667 6.6625 2.76667 6.5375 2.85C6.4125 2.93333 6.275 3.00833 6.125 3.075C5.94167 3.15833 5.79167 3.28333 5.675 3.45C5.55833 3.61667 5.5 3.8 5.5 4C5.5 4.11667 5.53333 4.27083 5.6 4.4625C5.66667 4.65417 5.7 4.88333 5.7 5.15C5.7 5.33333 5.67083 5.52917 5.6125 5.7375C5.55417 5.94583 5.43333 6.15833 5.25 6.375C5.16667 6.475 5.10417 6.575 5.0625 6.675C5.02083 6.775 5 6.88333 5 7C5 7.26667 5.09583 7.5 5.2875 7.7C5.47917 7.9 5.71667 8 6 8ZM0 18V15.2C0 14.6333 0.145833 14.1125 0.4375 13.6375C0.729167 13.1625 1.11667 12.8 1.6 12.55C2.63333 12.0333 3.68333 11.6458 4.75 11.3875C5.81667 11.1292 6.9 11 8 11C9.1 11 10.1833 11.1292 11.25 11.3875C12.3167 11.6458 13.3667 12.0333 14.4 12.55C14.8833 12.8 15.2708 13.1625 15.5625 13.6375C15.8542 14.1125 16 14.6333 16 15.2V18H0ZM2 16H14V15.2C14 15.0167 13.9542 14.85 13.8625 14.7C13.7708 14.55 13.65 14.4333 13.5 14.35C12.6 13.9 11.6917 13.5625 10.775 13.3375C9.85833 13.1125 8.93333 13 8 13C7.06667 13 6.14167 13.1125 5.225 13.3375C4.30833 13.5625 3.4 13.9 2.5 14.35C2.35 14.4333 2.22917 14.55 2.1375 14.7C2.04583 14.85 2 15.0167 2 15.2V16Z" fill="#1C1B1F"/>
</svg>
